<svg xmlns="http://www.w3.org/2000/svg" id="undraw_secure_login_pdn4" width="470" height="327.004" viewBox="0 0 470 327.004">
    <defs>
        <style>
            .cls-1{fill:#e6e6e6}.cls-2{fill:#2f2e41}.cls-4{fill:#fff}.cls-5{fill:#6c63ff}.cls-6{fill:#ffb8b8}
        </style>
    </defs>
    <ellipse id="Ellipse_1" cx="93.644" cy="7.112" class="cls-1" data-name="Ellipse 1" rx="93.644" ry="7.112" transform="translate(0 312.779)"/>
    <path id="Path_2" d="M324.272 262.292c16.3-6.932 36.6-2.54 56.418.508.184-3.691 2.42-8.184.078-10.759-2.846-3.129-2.584-6.416-.871-9.722 4.379-8.455-1.895-17.451-8.229-24.931a14.029 14.029 0 0 0-11.709-4.914l-11.734.838a14.052 14.052 0 0 0-12.478 10.044c-2.8 3.81-4.3 7.61-3.357 11.391-4.2 2.868-4.9 6.33-3.016 10.232a5.882 5.882 0 0 1-.073 7.175 33.127 33.127 0 0 0-4.925 9.783z" class="cls-2" data-name="Path 2" transform="translate(-252.692 -189.735)"/>
    <path id="Path_3" d="M741.789 636.231H409.637a11.137 11.137 0 0 1-11.137-11.137q180.607-20.99 354.426 0a11.137 11.137 0 0 1-11.137 11.137z" class="cls-2" data-name="Path 3" transform="translate(-282.926 -353.542)"/>
    <path id="Path_4" fill="#3f3d56" d="M752.926 470.879l-354.426-.655 41.077-69.116.2-.328V248.455a14.078 14.078 0 0 1 14.08-14.079h241.752a14.078 14.078 0 0 1 14.079 14.08v153.372z" data-name="Path 4" transform="translate(-282.926 -198.672)"/>
    <path id="Path_5" d="M488.2 250.957a4.591 4.591 0 0 0-4.586 4.586v138.888a4.591 4.591 0 0 0 4.586 4.586h244.363a4.591 4.591 0 0 0 4.586-4.586V255.543a4.591 4.591 0 0 0-4.586-4.586z" class="cls-4" data-name="Path 5" transform="translate(-317.594 -205.425)"/>
    <path id="Path_6" d="M483.029 531.718a1.971 1.971 0 0 0-1.786 1.144l-12.657 27.516a1.965 1.965 0 0 0 1.785 2.787h266.171a1.965 1.965 0 0 0 1.758-2.844L724.542 532.8a1.955 1.955 0 0 0-1.757-1.086z" class="cls-2" data-name="Path 6" transform="translate(-311.4 -319.783)"/>
    <circle id="Ellipse_2" cx="2.948" cy="2.948" r="2.948" class="cls-4" data-name="Ellipse 2" transform="translate(288.856 37.343)"/>
    <path id="Path_7" d="M648.167 593.619a1.968 1.968 0 0 0-1.9 1.454l-3.175 11.792a1.965 1.965 0 0 0 1.9 2.477h60.379a1.965 1.965 0 0 0 1.857-2.608l-4.082-11.792a1.966 1.966 0 0 0-1.857-1.322z" class="cls-2" data-name="Path 7" transform="translate(-382.526 -344.996)"/>
    <path id="Path_8" d="M534.417 337.135v2.62H264.306l.2-.327v-2.293z" class="cls-2" data-name="Path 8" transform="translate(-107.656 -137.32)"/>
    <circle id="Ellipse_3" cx="45.859" cy="45.859" r="45.859" class="cls-5" data-name="Ellipse 3" transform="translate(373.368)"/>
    <path id="Path_9" d="M914.976 265.863h-38a2.623 2.623 0 0 1-2.621-2.621v-22.93a2.623 2.623 0 0 1 2.621-2.621h38a2.623 2.623 0 0 1 2.621 2.621v22.93a2.623 2.623 0 0 1-2.62 2.621zm-38-25.55v22.93h38v-22.93z" class="cls-4" data-name="Path 9" transform="translate(-476.75 -200.022)"/>
    <path id="Path_10" d="M914.523 225.906h-23.585v-10.482c0-7.592 4.96-13.1 11.792-13.1s11.792 5.51 11.792 13.1zm-20.964-2.621H911.9v-7.862c0-6.172-3.771-10.482-9.172-10.482s-9.172 4.31-9.172 10.482z" class="cls-4" data-name="Path 10" transform="translate(-483.503 -185.615)"/>
    <circle id="Ellipse_4" cx="2.621" cy="2.621" r="2.621" class="cls-4" data-name="Ellipse 4" transform="translate(416.607 48.48)"/>
    <path id="Path_11" d="M724.63 384.282H535.777a3.5 3.5 0 0 1-3.5-3.5v-46.843a3.5 3.5 0 0 1 3.5-3.5H724.63a3.5 3.5 0 0 1 3.5 3.5v46.846a3.5 3.5 0 0 1-3.5 3.497zM535.777 331.84a2.1 2.1 0 0 0-2.1 2.1v46.846a2.1 2.1 0 0 0 2.1 2.1H724.63a2.1 2.1 0 0 0 2.1-2.1v-46.847a2.1 2.1 0 0 0-2.1-2.1z" class="cls-1" data-name="Path 11" transform="translate(-337.416 -237.8)"/>
    <circle id="Ellipse_5" cx="14.246" cy="14.246" r="14.246" class="cls-1" data-name="Ellipse 5" transform="translate(213.458 103.518)"/>
    <path id="Path_12" d="M641.571 356.805a2.374 2.374 0 1 0 0 4.749H753.5a2.374 2.374 0 0 0 0-4.749z" class="cls-1" data-name="Path 12" transform="translate(-380.965 -248.539)"/>
    <path id="Path_13" d="M641.571 380.842a2.374 2.374 0 1 0 0 4.749h48.165a2.374 2.374 0 1 0 0-4.749z" class="cls-1" data-name="Path 13" transform="translate(-380.965 -258.329)"/>
    <path id="Path_14" d="M442.726 368.474l-34.911 18.56-.442-15.467a103.391 103.391 0 0 0 32.26-10.606l3.651-9.021a6.115 6.115 0 0 1 10.394-1.587 6.115 6.115 0 0 1-.538 8.338z" class="cls-6" data-name="Path 14" transform="translate(-286.54 -245.001)"/>
    <path id="Path_15" d="M322.932 547.182a6.86 6.86 0 0 1 .871-5.549l7.669-11.769a13.4 13.4 0 0 1 17.386-4.587c-3.223 5.486-2.774 10.3 1.113 14.481a69.719 69.719 0 0 0-16.557 11.288 6.86 6.86 0 0 1-10.482-3.863z" class="cls-2" data-name="Path 15" transform="translate(-252.048 -316.548)"/>
    <path id="Path_16" d="M425.487 501.871a13.16 13.16 0 0 1-11.184 6.389l-50.947.386-2.21-12.815 22.537-6.629-19-14.583 20.77-24.305 37.724 35.161a13.16 13.16 0 0 1 2.31 16.396z" class="cls-2" data-name="Path 16" transform="translate(-267.711 -286.626)"/>
    <path id="Path_17" d="M335.832 565.219H323.9c-10.713-73.432-21.617-147.07 10.606-174.555l38 6.187-4.861 32.26-21.212 24.305z" class="cls-2" data-name="Path 17" transform="translate(-248.142 -262.33)"/>
    <path id="Path_18" d="M352.248 698.737a6.86 6.86 0 0 1-5.549-.87l-12.955-1.741a13.4 13.4 0 0 1-4.588-17.386c5.486 3.223 10.3 2.773 14.481-1.114 2.955 5.967 7.824 5.6 12.474 10.63a6.86 6.86 0 0 1-3.863 10.482z" class="cls-2" data-name="Path 18" transform="translate(-254.071 -379.213)"/>
    <path id="Path_19" d="M383.987 286.947l-22.1-5.3c3.67-7.512 3.972-15.87 2.21-24.747l15.025-.442c.478 11.036 1.899 21.349 4.865 30.489z" class="cls-6" data-name="Path 19" transform="translate(-268.015 -207.664)"/>
    <path id="Path_20" d="M380.986 368.854c-16.085 10.961-27.45.375-36.123-15.957 1.205-9.994-.746-21.953-4.36-34.949a23.789 23.789 0 0 1 14.524-28.687l19 7.954c16.135 13.152 19.311 27.4 13.257 42.424z" class="cls-5" data-name="Path 20" transform="translate(-258.942 -221.027)"/>
    <path id="Path_21" d="M304.07 314.09l-17.676 9.28 31.376 18.56 4.366 10.769a5.712 5.712 0 0 1-3.431 7.545 5.712 5.712 0 0 1-7.564-5.064l-.441-7.505-39.878-13.16a9.325 9.325 0 0 1-5.851-5.7 9.325 9.325 0 0 1 3.5-10.848l32.067-22z" class="cls-6" data-name="Path 21" transform="translate(-228.313 -223.76)"/>
    <path id="Path_22" d="M344.746 312.652c-7.372-3.231-14.076.279-22.537 3.093l-1.326-23.421c8.4-4.478 16.413-5.685 23.863-2.21z" class="cls-5" data-name="Path 22" transform="translate(-251.312 -220.554)"/>
    <circle id="Ellipse_6" cx="14.107" cy="14.107" r="14.107" class="cls-6" data-name="Ellipse 6" transform="translate(88.146 32.177)"/>
    <path id="Path_23" d="M382.912 240.524c-13.967 1.368-24.61-.916-31.412-7.42v-5.238h30.227z" class="cls-2" data-name="Path 23" transform="translate(-263.782 -196.02)"/>
</svg>
