<svg xmlns="http://www.w3.org/2000/svg" xmlns:xlink="http://www.w3.org/1999/xlink" width="470" height="375.078" viewBox="0 0 470 375.078">
  <defs>
    <style>
      .cls-1, .cls-7 {
        fill: #6c63ff;
      }

      .cls-1, .cls-11, .cls-3 {
        opacity: 0.1;
      }

      .cls-2 {
        fill: #5f5d7e;
      }

      .cls-4 {
        fill: #474157;
      }

      .cls-5 {
        fill: #ededf4;
      }

      .cls-6 {
        fill: #e6e8ec;
      }

      .cls-8 {
        fill: url(#linear-gradient);
      }

      .cls-9 {
        fill: #fdc2cc;
      }

      .cls-10 {
        opacity: 0.3;
      }

      .cls-12 {
        fill: #ffd037;
      }

      .cls-13 {
        fill: #65617d;
      }

      .cls-14 {
        fill: #9d9cb5;
      }
    </style>
    <linearGradient id="linear-gradient" x1="0.5" y1="1" x2="0.5" gradientUnits="objectBoundingBox">
      <stop offset="0" stop-color="gray" stop-opacity="0.251"/>
      <stop offset="0.54" stop-color="gray" stop-opacity="0.122"/>
      <stop offset="1" stop-color="gray" stop-opacity="0.102"/>
    </linearGradient>
  </defs>
  <g id="undraw_press_play_bx2d" transform="translate(0 -0.01)">
    <path id="Path_152" data-name="Path 152" class="cls-1" d="M273.357,66.087c14.481-12.9,37.219-15.526,57.91-14.509,65,3.232,123.673,34.608,174.422,70.1,18.372,12.849,36.462,26.695,48.388,44.389,24.276,36.024,17.078,85.922-16.683,115.595-11.484,10.1-25.405,17.836-39.7,24.7-25.405,12.2-52.839,21.99-81.683,24.78-20.574,1.985-41.4.372-61.848-2.4-57.143-7.744-113.219-24.893-160.223-54.193-20.616-12.858-40.051-28.84-48.548-49.644s-3.058-47.141,18.014-59.467c8.708-5.09,19.12-7.391,29.31-9.551,15-3.18,30.247-6.314,43.782-12.773,13.982-6.676,30.543-19.586,27.758-34.344C261.262,92.9,258.909,78.959,273.357,66.087Z" transform="translate(-122.238 -51.37)"/>
    <circle id="Ellipse_8" data-name="Ellipse 8" class="cls-1" cx="14.82" cy="14.82" r="14.82" transform="translate(67.08 46.064)"/>
    <circle id="Ellipse_9" data-name="Ellipse 9" class="cls-1" cx="9.174" cy="9.174" r="9.174" transform="translate(41.679 16.425)"/>
    <circle id="Ellipse_10" data-name="Ellipse 10" class="cls-1" cx="5.646" cy="5.646" r="5.646" transform="translate(429.808 48.181)"/>
    <ellipse id="Ellipse_11" data-name="Ellipse 11" class="cls-1" cx="39.632" cy="3.952" rx="39.632" ry="3.952" transform="translate(284.955 367.184)"/>
    <path id="Path_153" data-name="Path 153" class="cls-2" d="M152.575,487.31,152.4,496.7l-1.393,76.08-11.922,27.918L98,601.164V491.634l42.879-3.4Z" transform="translate(-51.894 -258.04)"/>
    <path id="Path_154" data-name="Path 154" class="cls-3" d="M152.575,487.31,152.4,496.7l-1.393,76.08-11.922,27.918L98,601.164V491.634l42.879-3.4Z" transform="translate(-51.894 -258.04)"/>
    <path id="Path_155" data-name="Path 155" class="cls-2" d="M198.818,487.31l-.174,9.386-1.393,76.08L185.33,600.693l3.138-103.819-.009-.066-1.336-8.572Z" transform="translate(-98.138 -258.04)"/>
    <path id="Path_156" data-name="Path 156" class="cls-3" d="M140.879,488.237l11.7-.927L152.4,496.7l-10.186.113L98,497.3v-5.669Z" transform="translate(-51.894 -258.04)"/>
    <path id="Path_157" data-name="Path 157" class="cls-2" d="M945.163,489.425v108.9H935.6L897.33,570.412V486.353l34.189-3.213,2.1.964,1.981.913Z" transform="translate(-475.163 -255.832)"/>
    <rect id="Rectangle_59" data-name="Rectangle 59" class="cls-3" width="9.565" height="114.221" transform="translate(460.435 228.273)"/>
    <path id="Path_158" data-name="Path 158" class="cls-3" d="M945.163,484.1v6.262l-9.565.108-38.268.423v-4.545l34.189-3.213,2.1.964,1.981.913V484.1Z" transform="translate(-475.163 -255.832)"/>
    <path id="Path_159" data-name="Path 159" class="cls-2" d="M470,467.579v8.873L0,481.693V470.4l44.224-8.939,384.845-2.823Z" transform="translate(0 -242.858)"/>
    <path id="Path_160" data-name="Path 160" class="cls-3" d="M470,477.64v8.873L0,491.754V480.463Z" transform="translate(0 -252.919)"/>
    <rect id="Rectangle_60" data-name="Rectangle 60" class="cls-4" width="164.627" height="127.822" rx="22.82" transform="translate(171.957 91.733)"/>
    <rect id="Rectangle_61" data-name="Rectangle 61" class="cls-5" width="138.375" height="104.27" transform="translate(185.205 103.264)"/>
    <circle id="Ellipse_12" data-name="Ellipse 12" class="cls-6" cx="2.268" cy="2.268" r="2.268" transform="translate(177.537 153.129)"/>
    <circle id="Ellipse_13" data-name="Ellipse 13" class="cls-6" cx="3.74" cy="3.74" r="3.74" transform="translate(325.97 151.901)"/>
    <path id="Path_161" data-name="Path 161" class="cls-7" d="M631.775,356.494,614.08,345.739a2.418,2.418,0,0,0-3.59,2.108v20.917a2.418,2.418,0,0,0,3.59,2.108l17.695-10.153a2.423,2.423,0,0,0,0-4.225Zm13.3,1.811a24.935,24.935,0,1,0-24.935,24.935A24.935,24.935,0,0,0,645.08,358.3Zm-45.043,0a20.108,20.108,0,1,1,20.108,20.108A20.108,20.108,0,0,1,600.037,358.3Z" transform="translate(-362.464 -200.692)"/>
    <path id="Path_162" data-name="Path 162" class="cls-8" d="M771.207,438.042a5.88,5.88,0,0,0-.532-1.656c.358-1.219.588-1.966.588-1.966a2.753,2.753,0,0,0-.056-.471,7.222,7.222,0,0,0-7.316-6.06c-2.823.052-8.177.24-14.114.908.339-2.376.743-5.218,1.167-8.144l.776.085a3.727,3.727,0,0,1,.555.028h.249a2.56,2.56,0,0,0,1.722-.527,1.016,1.016,0,0,0-.315-1.665,4.2,4.2,0,0,0,3.684-1.543,3.293,3.293,0,0,0,0-3.83c-.993-1.411-3.1-2.352-3.209-4.013a4.9,4.9,0,0,1,1.063-2.621,10.948,10.948,0,0,0-1.727-13.15,25.752,25.752,0,0,0-2.089-1.858c-1.035-3.8-2.117-7.2-2.437-7.306-.414-.136-1.124-1.03-1.8-1.8a8.663,8.663,0,0,0-.033-1.943c-.5-3.293-3.764-5.646-5.561-8.553a14.767,14.767,0,0,1-1.661-9.8,70.107,70.107,0,0,1,2.569-9.8c.706-2.413,1.294-4.978.5-7.372a13.4,13.4,0,0,0-3.034-4.573,34.567,34.567,0,0,0-10.783-8.468,21.429,21.429,0,0,0-9.546-2.042h-.033l-.518.028-.367.024-.367.038-.391.038h0c-.4.052-.8.113-1.19.193a41.077,41.077,0,0,0-8.727-.979H707.9a4.47,4.47,0,0,0-2.494.588c-1.044.729-1.176,2.037-1.491,3.176a8.813,8.813,0,0,1-3.387,4.7c-1.125.809-2.446,1.411-3.519,2.258a3.584,3.584,0,0,0-1.623,3.369,3.677,3.677,0,0,0,2.352,2.305c-.136.169-.278.334-.409.508.221.089.47.169.673.235,1.411.419,2.931.47,4.361.852a9.568,9.568,0,0,1,1.157.39,16.526,16.526,0,0,0-1.934,7.772,16.744,16.744,0,0,0,8.76,14.688v.47c.146,4.912-.226,10.887-2.738,11.9s-4.916,2.155-6.4,2.893l-.47.249c-.391-.179-.781-.367-1.162-.565,0,0-2-.235-1.651,1.289,0,0-6.046-.941-9.362,1.642a86.205,86.205,0,0,0-9.828,9.381c-1.068,1.407-9.325,4.484-9.325,4.484a10.587,10.587,0,0,0,1.477-8.092s-1.242-5.373-.649-7.527,2.131-10.153,2.131-10.153.216-8.44-4.389-12.312-7.81-7.057-6.031-3.293a52.455,52.455,0,0,0,2.606,5.039s-11.014,2.616-7.1,6.7,4.973,4.088,4.973,4.088-1.3,10.082-1.543,11.959-2.352,16.179-2.352,16.179-.118,6.8,1.068,7.857a5.351,5.351,0,0,0,5.683,4.234s9.353-.235,11.959-1.289,11.6-6.685,12.552-6.333a.544.544,0,0,1,.184.122,1.356,1.356,0,0,1,.141.141c-.941,2.084-3.171,9.16-2.221,12.637,0,0-.828,9.847,4.145,13.013,0,0,7.222,12.195,4.5,18.758-.216.532-.409,1.021-.588,1.5-4.135-3.43-10.444-6.587-20.08-8.332-.983-.179-1.962-.4-2.931-.63-2.738-.663-10.27-1.27-13.855,10.637a52.4,52.4,0,0,1-3.18,8.055,26.593,26.593,0,0,0-3.011,11.009c-.08,5.693,2.86,11.334,13.531,13.4.118,4.234.6,9.278,2.051,12.9,2.959,7.386,7.7,19.346,7.7,19.346s5.683,12.195,6.041,17.116a78.57,78.57,0,0,1,.334,10.35,4.614,4.614,0,0,1-.047.517,12.485,12.485,0,0,1-1.59,1.444c-.828.471-3.552,3.4-3.552,4.1a12.547,12.547,0,0,0,.179,2,4.938,4.938,0,0,0-1.995,3.576c0,6.361,18.052,11.517,40.319,11.517s40.315-5.175,40.315-11.517c0-5.806-15.055-10.6-34.617-11.395,4.079-1.628,7.7-3.336,9.2-4.7a2.2,2.2,0,0,0,.711-.969l-3.787-8.793s-.3.066-.734.193l-.263-.4c-1.684-2.564-4.926-7.673-4.926-9.061,0-.513-.856-3.792-2.1-8.285v-14.42c12.355,1.882,28.275-.677,28.275-.677l.07-.038h.311v-.169c2.141-1.186,12.849-7.457,16.024-15.775.941-2.428-.231-5.9-2.559-9.621,1.628-4.041,5.646-14.481,5.246-18.645,0-.221-.028-.47-.028-.715a12.285,12.285,0,0,0,.047-1.28c.47-6.116,4.234-17.29,4.234-17.29S771.254,438.324,771.207,438.042Zm-79.98-27.174c.856,1.505,1.774,3.43,2.136,4.211h0s-1.251-2.305-2.112-4.211Zm.894,131.779-.089.033v-.47a27.925,27.925,0,0,1,.089-3.679,4.308,4.308,0,0,0-.4-1.91,45.173,45.173,0,0,1-2.884-11.353c-.47-4.1-.861-8.577-.616-9.715.367-1.745.668-14.966.212-21.482l7.283,1.637,8.469,17.266s5.448,8.431,7.137,15.083v6.662a16.28,16.28,0,0,1-2.545,5.523c-1.124,1.538-2.221,3.1-3.237,4.7-.31.5-.654,1.012-1,1.491-.113,0-5.678.325-6.624,1.369a6.324,6.324,0,0,0-1.769,2.682l-.24.038a56.138,56.138,0,0,0-3.759-7.88Z" transform="translate(-393.005 -198.502)"/>
    <path id="Path_163" data-name="Path 163" class="cls-3" d="M783.528,768.316l-1.882,6.116-8,6.939-11.762,3.378s-5.528-3.025-3.646-3.613a4.642,4.642,0,0,0,1.774-1.543c-.659,2.4,4.578-.692,4.578-.692s13.526-9.645,14.937-10.7a10.637,10.637,0,0,1,3.011-1.378C783.128,767.737,783.528,768.316,783.528,768.316Z" transform="translate(-448.586 -430.217)"/>
    <path id="Path_164" data-name="Path 164" class="cls-9" d="M769.141,708.993l-1.882,6.116-8,6.94L747.5,725.427s-5.528-3.025-3.646-3.613a4.639,4.639,0,0,0,1.774-1.543A23.493,23.493,0,0,0,747.2,718c1.007-1.618,2.1-3.181,3.213-4.7a16.938,16.938,0,0,0,2.969-7.815c.823-6.469-7.528-19.525-7.528-19.525L730.68,654.79l21.171,2.588s11.409,39.167,11.409,41.049c0,1.411,3.218,6.516,4.893,9.09C768.741,708.414,769.141,708.993,769.141,708.993Z" transform="translate(-434.199 -370.893)"/>
    <ellipse id="Ellipse_14" data-name="Ellipse 14" class="cls-2" cx="40.046" cy="11.55" rx="40.046" ry="11.55" transform="translate(283.153 351.211)"/>
    <path id="Path_165" data-name="Path 165" class="cls-7" d="M780.966,776.071a2.26,2.26,0,0,1-.706.974c-2.907,2.667-13.78,6.634-20.5,8.788a47.551,47.551,0,0,1-5.377,1.529c-1.647.118-5.057-.941-7.41-2.385s-.235-3.5.715-4.554,6.587-1.374,6.587-1.374c-2.705,4.5,3.994.551,3.994.551s13.526-9.645,14.938-10.7a12.981,12.981,0,0,1,4-1.647Z" transform="translate(-442.26 -430.444)"/>
    <path id="Path_166" data-name="Path 166" class="cls-10" d="M780.966,776.071a2.26,2.26,0,0,1-.706.974c-2.907,2.667-13.78,6.634-20.5,8.788a47.551,47.551,0,0,1-5.377,1.529c-1.647.118-5.057-.941-7.41-2.385s-.235-3.5.715-4.554,6.587-1.374,6.587-1.374c-2.705,4.5,3.994.551,3.994.551s13.526-9.645,14.938-10.7a12.981,12.981,0,0,1,4-1.647Z" transform="translate(-442.26 -430.444)"/>
    <path id="Path_167" data-name="Path 167" class="cls-3" d="M795.858,788.09c-2.908,2.668-13.78,6.634-20.5,8.788C781.448,791.722,791.657,789.026,795.858,788.09Z" transform="translate(-457.858 -441.48)"/>
    <ellipse id="Ellipse_15" data-name="Ellipse 15" class="cls-3" cx="8.012" cy="2.31" rx="8.012" ry="2.31" transform="translate(315.187 356.73)"/>
    <rect id="Rectangle_62" data-name="Rectangle 62" class="cls-2" width="8.233" height="60.926" transform="translate(318.744 298.114)"/>
    <path id="Path_168" data-name="Path 168" class="cls-3" d="M786.233,688.025v7.057A57.892,57.892,0,0,1,778,690.749V685h1.717Z" transform="translate(-459.256 -386.891)"/>
    <path id="Path_169" data-name="Path 169" class="cls-4" d="M754.27,614.049s27.184-7,33.949-12.232,33.333,19.4,29.823,28.7-16.288,16.029-16.288,16.029-35.337,5.749-41.354-6.243S754.27,614.049,754.27,614.049Z" transform="translate(-446.691 -342.46)"/>
    <path id="Path_170" data-name="Path 170" class="cls-3" d="M754.27,614.049s27.184-7,33.949-12.232,33.333,19.4,29.823,28.7-16.288,16.029-16.288,16.029-35.337,5.749-41.354-6.243S754.27,614.049,754.27,614.049Z" transform="translate(-446.691 -342.46)"/>
    <path id="Path_171" data-name="Path 171" class="cls-4" d="M749.27,608.049s27.184-7,33.949-12.232,33.333,19.4,29.823,28.7-16.288,16.029-16.288,16.029-35.337,5.749-41.354-6.243S749.27,608.049,749.27,608.049Z" transform="translate(-444.043 -339.283)"/>
    <path id="Path_172" data-name="Path 172" class="cls-9" d="M678.062,436.439l-2.94-1.068a10.694,10.694,0,0,0,1.473-8.116s-1.237-5.392-.649-7.575,2.117-10.186,2.117-10.186.216-8.468-4.361-12.35-7.753-7.057-5.989-3.293a52.385,52.385,0,0,0,2.588,5.058s-10.938,2.621-7.057,6.723,4.94,4.1,4.94,4.1-1.294,10.115-1.529,12-2.352,16.231-2.352,16.231-.118,6.822,1.058,7.88A5.321,5.321,0,0,0,671,450.074C671.842,450.06,681.826,439.027,678.062,436.439Z" transform="translate(-398.047 -231.827)"/>
    <path id="Path_173" data-name="Path 173" class="cls-9" d="M797.169,418.882v6.587l-6.822,2.225-11.621,8.553-3.082,2.268-13.761-5.528-8.7-9.174s.423-.23,1.157-.612l.47-.249c1.473-.739,3.792-1.882,6.356-2.9s2.865-7.005,2.719-11.936v-.47c-.118-3.458-.47-6.285-.47-6.285s1.435-.273,3.524-.583c5.791-.861,16.6-2.023,15.648,1.524a8.169,8.169,0,0,0,0,3.665c.028.132.056.268.089.4a31.037,31.037,0,0,0,4.008,8.755l9.409,3.387.263.094Z" transform="translate(-446.113 -235.911)"/>
    <path id="Path_174" data-name="Path 174" class="cls-9" d="M840.193,442.162v-2a6.589,6.589,0,0,1,2.235,0c.823.235,2.385,2.705,3.091,2.94s5.025,16.349,4.554,17.76-4.916,33.276-4.916,33.276l-8.963,9.88-1.764-27.17,5.763-16.114Z" transform="translate(-489.138 -257.191)"/>
    <path id="Path_175" data-name="Path 175" class="cls-9" d="M739.778,601.77s-8.191,1.764-7.151,4.352,5.622,2.705,5.622,2.705Z" transform="translate(-435.182 -342.818)"/>
    <path id="Path_176" data-name="Path 176" class="cls-9" d="M723.728,469.5l-6.234,13.432-7.41,5.41-1.294-8.36s-2.5-5.528-3.58-6.464a.542.542,0,0,0-.183-.122c-.941-.353-9.88,5.293-12.467,6.351s-11.879,1.294-11.879,1.294l4.117-14.7s8.233-3.058,9.292-4.469a85.629,85.629,0,0,1,9.762-9.409c3.293-2.588,9.3-1.647,9.3-1.647l.094.038,1.543.668,4.469,10.938Z" transform="translate(-407.723 -262.793)"/>
    <path id="Path_177" data-name="Path 177" class="cls-9" d="M708.648,691.457a28.067,28.067,0,0,0-.089,3.689c.033,1.313.089,2.428.089,2.428l-2.705,5.646s-9.292,3.058-7.763,1.764c.532-.447.8-1.609.941-3.147a79.841,79.841,0,0,0-.334-10.379c-.353-4.94-6-17.172-6-17.172s-4.7-12-7.645-19.407-1.882-20.818-1.882-20.818.47-10.115,2.588-13.173,10.35-4.117,10.35-4.117l3.863,12.811s3.176,12,4.352,13.761.823,22.818.353,25.052c-.24,1.143.165,5.646.616,9.748a45.774,45.774,0,0,0,2.861,11.385A4.349,4.349,0,0,1,708.648,691.457Z" transform="translate(-408.991 -350.761)"/>
    <path id="Path_178" data-name="Path 178" class="cls-3" d="M725.457,785.788l-2.705,5.646s-9.292,3.058-7.763,1.764c.532-.447.8-1.609.941-3.147.334-.334.692-.7,1.058-1.077a23.757,23.757,0,0,1,8.4-5.613h0C725.4,784.673,725.457,785.788,725.457,785.788Z" transform="translate(-425.8 -438.975)"/>
    <path id="Path_179" data-name="Path 179" class="cls-7" d="M725.136,794.672a.283.283,0,0,1,0,.066c-.471,2.235-8.233,5.293-8.233,5.293s-4.94.823-7.763,1.529a1.951,1.951,0,0,1-.663.061c-2.178-.165-2.277-4.357-2.277-5s2.705-3.646,3.529-4.116A25.23,25.23,0,0,0,712.344,790a24.278,24.278,0,0,1,8.572-5.726h0S725.513,792.353,725.136,794.672Z" transform="translate(-421.236 -439.457)"/>
    <path id="Path_180" data-name="Path 180" class="cls-10" d="M725.136,794.661a.282.282,0,0,1,0,.066c-.471,2.235-8.233,5.293-8.233,5.293s-4.94.823-7.763,1.529a1.954,1.954,0,0,1-.663.061c-2.178-.165-2.277-4.357-2.277-5s2.705-3.646,3.529-4.117a24.955,24.955,0,0,0,2.654-2.545,23.79,23.79,0,0,1,8.4-5.646l.132-.052S725.513,792.342,725.136,794.661Z" transform="translate(-421.236 -439.446)"/>
    <path id="Path_181" data-name="Path 181" class="cls-3" d="M727.7,806.292a.281.281,0,0,1,0,.066c-.47,2.235-8.233,5.293-8.233,5.293s-4.94.823-7.763,1.529a1.951,1.951,0,0,1-.663.061c2.559-1.755,8.765-5.965,9.6-6.06S725.606,805.9,727.7,806.292Z" transform="translate(-423.799 -451.076)"/>
    <path id="Path_182" data-name="Path 182" class="cls-3" d="M794.226,406.364c-2.907,2.395-5.58,2.051-9.64,2.051-2.936,0-6.751,1.03-9.156-.292-.1-3.674-.47-6.765-.47-6.765s20.465-3.881,19.172.941A8.553,8.553,0,0,0,794.226,406.364Z" transform="translate(-457.647 -235.912)"/>
    <path id="Path_183" data-name="Path 183" class="cls-9" d="M791.073,366.132a16.819,16.819,0,0,1-16.819,16.819,11.73,11.73,0,0,1-1.289-.047h0a16.819,16.819,0,1,1,18.113-16.772Z" transform="translate(-448.369 -209.136)"/>
    <path id="Path_184" data-name="Path 184" class="cls-3" d="M746.868,462.7l4.47,7.057L745.1,483.185l-7.41,5.41-1.294-8.384s-2.5-5.528-3.58-6.464c.31-.757.522-1.106.522-.828,0,1.176,2.893,6.469,2.893,6.469,8.939-3.058,6.163-14.937,6.163-14.937s-1.11-10.586-1.543-13.371l1.543.668Z" transform="translate(-435.332 -263.023)"/>
    <path id="Path_185" data-name="Path 185" class="cls-3" d="M797.169,439.952v6.587l-6.822,2.225-11.621,8.553-3.082,2.268-13.761-5.528-8.7-9.174s.423-.231,1.157-.612l.47-.249a57.443,57.443,0,0,0,23.763,4.272c17.723-2.823,18.25-7.1,17.807-8.624Z" transform="translate(-446.113 -256.981)"/>
    <path id="Path_186" data-name="Path 186" class="cls-7" d="M766.87,546.511a131.9,131.9,0,0,1-13.644,5.763c-8.116,2.94-25.993-.941-28.228-1.529s-19.407-7.41-25.993-10-8.233-.471-9.762-.706-2.587-3.176-2.823-4,4.234-8,6.7-11.644,9.88-2.94,10.938-3.176,8.468,0,8.468,0-.47-2.352,2.235-8.939-4.469-18.819-4.469-18.819c-4.94-3.176-4.117-13.056-4.117-13.056-1.176-4.352,2.588-14.349,2.588-13.173s2.893,6.469,2.893,6.469c8.939-3.058,6.163-14.937,6.163-14.937s-1.294-12.35-1.637-13.879,1.637-1.294,1.637-1.294q.574.3,1.157.565a57.185,57.185,0,0,0,24.248,4.493c21.486-3.467,17.68-9,17.539-9.193l1.045.372c7.763,5.646,5.41,24.347,5.41,24.347l-2.907,13.959-2.159,10.4s7.645,46.341,8.351,48.694S766.87,546.511,766.87,546.511Z" transform="translate(-410.757 -256.87)"/>
    <path id="Path_187" data-name="Path 187" class="cls-3" d="M731.971,622c-.47.353-5.763,11.291-1.882,14.349S731.971,622,731.971,622Z" transform="translate(-433.138 -353.53)"/>
    <path id="Path_188" data-name="Path 188" class="cls-3" d="M743.68,625.27c.117.353,11.056,17.76,17.055,19.172Z" transform="translate(-441.083 -355.262)"/>
    <path id="Path_189" data-name="Path 189" class="cls-3" d="M797.72,332.406l-1.75.372a11.782,11.782,0,0,1,1.477-.437Z" transform="translate(-468.772 -200.147)"/>
    <path id="Path_190" data-name="Path 190" class="cls-3" d="M798.9,416.447,795.6,430.4a17.04,17.04,0,0,1-4.573-3.063,13.929,13.929,0,0,0-3.34-2.795c-1.736-.842-3.83-.729-5.8-.8a27.91,27.91,0,0,1-7.255-1.242,5.12,5.12,0,0,1-1.882-.913c-1.12-.988-1.044-2.583-.941-3.975a60.969,60.969,0,0,0,.071-8.134c-.028-.508-.066-1.016-.108-1.524-.188-2.272-.8-4.907-3.124-5.881-1.195-.47-2.62-.433-3.764-1a3.107,3.107,0,0,1-.47-.292c-1.694-1.186-1.849-3.561-1.783-5.561q.151-4.121.287-8.247a23.977,23.977,0,0,0-.089-4.07h0a9.036,9.036,0,0,0-.734-2.6c-1.021-2.183-3.147-4-3.529-6.309a2.508,2.508,0,0,1-.042-.325c-.2-2.061,1.1-3.98,1.557-6.008.913-4.079-2.155-8.548-6.667-9.72-1.411-.367-2.926-.438-4.333-.856a6.976,6.976,0,0,1-.663-.235,19.749,19.749,0,0,1,15.874-7.528c10.506,0,19.026,7.528,19.026,16.819a16.141,16.141,0,0,1-7.029,13.056c.028.132.061.268.1.4,1.106,4.277,4.535,8.755,4.535,8.755l10.651,3.387,1.186.376C801.56,397.755,798.9,416.447,798.9,416.447Z" transform="translate(-443.593 -209.138)"/>
    <path id="Path_191" data-name="Path 191" class="cls-3" d="M867.661,520.668a1.594,1.594,0,0,1-.3-.042A.627.627,0,0,1,867.661,520.668Z" transform="translate(-506.575 -299.848)"/>
    <path id="Path_192" data-name="Path 192" class="cls-4" d="M766.137,330.309a40.461,40.461,0,0,0-8.977-1.049,4.97,4.97,0,0,0-2.823.593c-1.04.729-1.171,2.046-1.482,3.185a8.836,8.836,0,0,1-3.364,4.7c-1.115.814-2.428,1.411-3.5,2.268a3.648,3.648,0,0,0-1.614,3.378c.268,1.251,1.675,2.216,3.086,2.616s2.912.47,4.333.856c4.512,1.171,7.575,5.646,6.662,9.715-.47,2.028-1.755,3.947-1.557,6.008.23,2.461,2.5,4.357,3.571,6.638.974,2.08.908,4.413.833,6.662l-.287,8.252c-.075,2.174.113,4.789,2.258,5.853,1.148.565,2.578.5,3.764,1,2.324.969,2.936,3.609,3.124,5.876a60.737,60.737,0,0,1,.038,9.659c-.108,1.411-.183,2.987.941,3.975a5.043,5.043,0,0,0,1.882.913,27.91,27.91,0,0,0,7.255,1.242c1.976.075,4.065-.038,5.8.8a14.042,14.042,0,0,1,3.34,2.795,18.462,18.462,0,0,0,10.906,4.775,3.249,3.249,0,0,0,2.465-.5c.607-.56.249-1.769-.616-1.7a4.183,4.183,0,0,0,3.961-1.515,3.341,3.341,0,0,0,0-3.844c-.983-1.411-3.072-2.352-3.185-4.027a4.97,4.97,0,0,1,1.054-2.63,11.06,11.06,0,0,0-1.713-13.173c-2.207-2.282-5.514-4.013-6.285-6.939-.513-1.957.263-4.013-.033-6-.47-3.293-3.731-5.646-5.523-8.581a14.919,14.919,0,0,1-1.651-9.828,69.919,69.919,0,0,1,2.555-9.833c.7-2.423,1.28-5,.5-7.4a13.561,13.561,0,0,0-3.016-4.587,33.964,33.964,0,0,0-10.708-8.469c-4.262-1.99-9.457-2.762-13.982-1.289" transform="translate(-441.427 -198.516)"/>
    <path id="Path_193" data-name="Path 193" class="cls-3" d="M766.137,330.309a40.461,40.461,0,0,0-8.977-1.049,4.97,4.97,0,0,0-2.823.593c-1.04.729-1.171,2.046-1.482,3.185a8.836,8.836,0,0,1-3.364,4.7c-1.115.814-2.428,1.411-3.5,2.268a3.648,3.648,0,0,0-1.614,3.378c.268,1.251,1.675,2.216,3.086,2.616s2.912.47,4.333.856c4.512,1.171,7.575,5.646,6.662,9.715-.47,2.028-1.755,3.947-1.557,6.008.23,2.461,2.5,4.357,3.571,6.638.974,2.08.908,4.413.833,6.662l-.287,8.252c-.075,2.174.113,4.789,2.258,5.853,1.148.565,2.578.5,3.764,1,2.324.969,2.936,3.609,3.124,5.876a60.737,60.737,0,0,1,.038,9.659c-.108,1.411-.183,2.987.941,3.975a5.043,5.043,0,0,0,1.882.913,27.91,27.91,0,0,0,7.255,1.242c1.976.075,4.065-.038,5.8.8a14.042,14.042,0,0,1,3.34,2.795,18.462,18.462,0,0,0,10.906,4.775,3.249,3.249,0,0,0,2.465-.5c.607-.56.249-1.769-.616-1.7a4.183,4.183,0,0,0,3.961-1.515,3.341,3.341,0,0,0,0-3.844c-.983-1.411-3.072-2.352-3.185-4.027a4.97,4.97,0,0,1,1.054-2.63,11.06,11.06,0,0,0-1.713-13.173c-2.207-2.282-5.514-4.013-6.285-6.939-.513-1.957.263-4.013-.033-6-.47-3.293-3.731-5.646-5.523-8.581a14.919,14.919,0,0,1-1.651-9.828,69.919,69.919,0,0,1,2.555-9.833c.7-2.423,1.28-5,.5-7.4a13.561,13.561,0,0,0-3.016-4.587,33.964,33.964,0,0,0-10.708-8.469c-4.262-1.99-9.457-2.762-13.982-1.289" transform="translate(-441.427 -198.516)"/>
    <path id="Path_194" data-name="Path 194" class="cls-3" d="M737.18,549.684s4,1.529,8.233-2.705S737.18,549.684,737.18,549.684Z" transform="translate(-437.641 -313.079)"/>
    <g id="Group_4" data-name="Group 4" class="cls-11" transform="translate(302.833 130.772)">
      <path id="Path_195" data-name="Path 195" d="M793.381,330.969a16.728,16.728,0,0,1,2.352-.3,17.836,17.836,0,0,0-3.293.1Z" transform="translate(-769.735 -330.019)"/>
      <path id="Path_196" data-name="Path 196" d="M791.415,416.282a14.064,14.064,0,0,0-3.345-2.795c-1.731-.837-3.825-.725-5.8-.8a27.755,27.755,0,0,1-7.255-1.242,5.039,5.039,0,0,1-1.882-.913c-1.12-.988-1.04-2.578-.941-3.975a60.752,60.752,0,0,0-.038-9.659c-.193-2.268-.8-4.907-3.129-5.876-1.19-.5-2.616-.437-3.764-1-2.145-1.063-2.352-3.679-2.263-5.853q.146-4.126.287-8.247c.08-2.254.141-4.587-.833-6.667-1.068-2.282-3.34-4.173-3.571-6.638-.193-2.056,1.106-3.98,1.562-6.008.913-4.079-2.155-8.544-6.666-9.715-1.411-.367-2.926-.442-4.333-.856s-2.771-1.308-3.063-2.588a3.582,3.582,0,0,1,1.609-3.383c1.068-.861,2.381-1.454,3.5-2.268a8.8,8.8,0,0,0,3.359-4.7c.315-1.139.47-2.451,1.482-3.185a3.763,3.763,0,0,1,1.929-.565c-.419,0-.837-.024-1.251-.024a5.006,5.006,0,0,0-2.823.588c-1.04.734-1.171,2.047-1.482,3.185a8.836,8.836,0,0,1-3.364,4.7c-1.115.814-2.428,1.411-3.5,2.268a3.651,3.651,0,0,0-1.614,3.383c.268,1.256,1.661,2.169,3.068,2.588s2.912.47,4.333.856c4.512,1.171,7.575,5.646,6.662,9.715-.47,2.028-1.755,3.952-1.557,6.008.23,2.465,2.5,4.357,3.571,6.638.974,2.08.913,4.413.833,6.667q-.146,4.121-.287,8.247c-.075,2.173.113,4.789,2.258,5.853,1.148.565,2.578.5,3.764,1,2.324.969,2.936,3.609,3.124,5.876a60.751,60.751,0,0,1,.038,9.659c-.108,1.411-.183,2.987.941,3.975a5.044,5.044,0,0,0,1.882.913,27.718,27.718,0,0,0,7.255,1.242c1.976.075,4.065-.038,5.8.8a14.158,14.158,0,0,1,3.345,2.795,18.434,18.434,0,0,0,10.9,4.775,5.043,5.043,0,0,0,1.576-.061A18.4,18.4,0,0,1,791.415,416.282Z" transform="translate(-744.18 -329.32)"/>
    </g>
    <path id="Path_197" data-name="Path 197" class="cls-3" d="M685.751,484s-3.764,3.453-3.213,4.865S685.751,484,685.751,484Z" transform="translate(-408.677 -280.455)"/>
    <path id="Path_198" data-name="Path 198" class="cls-4" d="M674.438,578.015c-2.715-.663-10.2-1.275-13.761,10.67a52.832,52.832,0,0,1-3.157,8.078c-3.416,7.015-7.829,21.439,11.578,24.615l46.577,10.586s24.935,3.058,26.582,1.882,1.411-3.764,1.411-3.764-27.523,0-32.933-8.469-5.646-19.995-5.646-19.995.677-17.8-27.758-22.969C676.391,578.471,675.4,578.25,674.438,578.015Z" transform="translate(-393.873 -330.081)"/>
    <path id="Path_199" data-name="Path 199" class="cls-3" d="M674.438,578.185c-2.715-.663-10.2-1.275-13.761,10.675a52.825,52.825,0,0,1-3.157,8.078c-3.416,7.01-7.829,21.435,11.578,24.61l46.577,10.585s24.935,3.058,26.582,1.882,1.411-3.764,1.411-3.764-27.523,0-32.933-8.469-5.646-19.995-5.646-19.995.677-17.8-27.758-22.969C676.391,578.642,675.4,578.411,674.438,578.185Z" transform="translate(-393.873 -330.172)"/>
    <path id="Path_200" data-name="Path 200" class="cls-4" d="M831.227,545.636a7.193,7.193,0,0,0-7.269-6.078c-6.7.122-27.32,1.016-36.9,7.273,0,0-7.292,4.7-9.409,4.7S746.834,576,789.412,597.877c0,0,22.818,6.493,31.757-8.751,0,0,6.351-16.372,5.881-22.042s4.234-20.959,4.234-20.959S831.274,545.942,831.227,545.636Z" transform="translate(-453.026 -309.874)"/>
    <path id="Path_201" data-name="Path 201" class="cls-3" d="M831.227,554.921a7.055,7.055,0,0,0-7.269-5.613c-6.7.113-27.32.941-36.9,6.714,0,0-7.292,4.342-9.409,4.342s-30.816,22.583,11.762,42.78c0,0,22.818,5.994,31.757-8.078,0,0,6.351-15.116,5.881-20.348s4.234-19.346,4.234-19.346S831.274,555.2,831.227,554.921Z" transform="translate(-453.026 -315.037)"/>
    <rect id="Rectangle_63" data-name="Rectangle 63" class="cls-2" width="7.528" height="16.029" transform="translate(347.913 287.999)"/>
    <ellipse id="Ellipse_16" data-name="Ellipse 16" class="cls-3" cx="21.19" cy="1.36" rx="21.19" ry="1.36" transform="translate(58.903 220.101)"/>
    <path id="Path_202" data-name="Path 202" class="cls-7" d="M275.5,406.673a8.082,8.082,0,0,0-1.073,2.018c-.066.179-.132.376-.2.569a1.739,1.739,0,0,0-.372-.127,5.335,5.335,0,0,0-1.68-.146c0-.216.028-.47.033-.687.071-2.479-.221-5.937-2.588-4.474-2.268,1.411-.649,3.764.814,5.274l.376.367c-1.336.941-1.59,3.166-1.811,5.476s-2.183,4.841-3.486,6.276c-.132.146-.249.278-.367.4a4.756,4.756,0,0,0-3.787-.974c-.052-.2-.113-.414-.174-.64-1.054-3.8-3.242-10.393-6.031-11.837l.367-.47c1.186-1.553,2.522-3.853.55-4.446s-2.15,2-2.042,3.938c0,.245.038.47.056.687a2.9,2.9,0,0,0-2.061,1.007l-.306-.358c-1.6-1.882-4.531-4.879-5.42-2.616-.828,2.108,1.755,4.841,3.571,6.427l.113.1c-1.219,4.954,4.088,9,6.968,10.75l.372.226c-3.952,4.658-6.394,13.385-6.394,13.385L262,438.774s7.339-6.328,6.4-12.275h.075c7.335-1.468,9-9.287,7.857-13.931l.132-.052a8.346,8.346,0,0,0,3.4-2.569C281.906,407.092,277.6,403.874,275.5,406.673Z" transform="translate(-177.621 -237.652)"/>
    <path id="Path_203" data-name="Path 203" class="cls-3" d="M275.5,406.673a8.082,8.082,0,0,0-1.073,2.018c-.066.179-.132.376-.2.569a1.739,1.739,0,0,0-.372-.127,5.335,5.335,0,0,0-1.68-.146c0-.216.028-.47.033-.687.071-2.479-.221-5.937-2.588-4.474-2.268,1.411-.649,3.764.814,5.274l.376.367c-1.336.941-1.59,3.166-1.811,5.476s-2.183,4.841-3.486,6.276c-.132.146-.249.278-.367.4a4.756,4.756,0,0,0-3.787-.974c-.052-.2-.113-.414-.174-.64-1.054-3.8-3.242-10.393-6.031-11.837l.367-.47c1.186-1.553,2.522-3.853.55-4.446s-2.15,2-2.042,3.938c0,.245.038.47.056.687a2.9,2.9,0,0,0-2.061,1.007l-.306-.358c-1.6-1.882-4.531-4.879-5.42-2.616-.828,2.108,1.755,4.841,3.571,6.427l.113.1c-1.219,4.954,4.088,9,6.968,10.75l.372.226c-3.952,4.658-6.394,13.385-6.394,13.385L262,438.774s7.339-6.328,6.4-12.275h.075c7.335-1.468,9-9.287,7.857-13.931l.132-.052a8.346,8.346,0,0,0,3.4-2.569C281.906,407.092,277.6,403.874,275.5,406.673Z" transform="translate(-177.621 -237.652)"/>
    <path id="Path_204" data-name="Path 204" class="cls-7" d="M254.249,412.043l-1.28,3.787s-.72-.508-1.628-1.308c-1.816-1.585-4.4-4.319-3.571-6.427.889-2.263,3.82.724,5.42,2.616C253.821,411.46,254.249,412.043,254.249,412.043Z" transform="translate(-178.4 -239.832)"/>
    <path id="Path_205" data-name="Path 205" class="cls-7" d="M265.815,407.714a18.3,18.3,0,0,1-1.261,1.482,19.864,19.864,0,0,1-.23-1.99c-.108-1.938.1-4.512,2.042-3.938S266.982,406.161,265.815,407.714Z" transform="translate(-187.237 -237.662)"/>
    <path id="Path_206" data-name="Path 206" class="cls-7" d="M298.819,408.652c-.038,1.247-.16,2.239-.16,2.239a16.008,16.008,0,0,1-1.614-1.44c-1.463-1.52-3.082-3.863-.814-5.274C298.594,402.714,298.885,406.172,298.819,408.652Z" transform="translate(-203.549 -238.002)"/>
    <path id="Path_207" data-name="Path 207" class="cls-7" d="M312.409,412.666A8.346,8.346,0,0,1,309,415.23a9.477,9.477,0,0,1-1.139.409L306.34,413.5a15.563,15.563,0,0,1,.63-2.08,8.089,8.089,0,0,1,1.073-2.018C310.16,406.606,314.46,409.824,312.409,412.666Z" transform="translate(-209.498 -240.384)"/>
    <path id="Path_208" data-name="Path 208" class="cls-3" d="M257.375,414.57c.645.748,1.073,1.331,1.073,1.331l-1.28,3.787s-.72-.508-1.628-1.308A7.409,7.409,0,0,1,257,415.055,4.409,4.409,0,0,1,257.375,414.57Z" transform="translate(-182.598 -243.69)"/>
    <path id="Path_209" data-name="Path 209" class="cls-3" d="M265.841,412.238a18.3,18.3,0,0,1-1.261,1.482,19.86,19.86,0,0,1-.231-1.99,2.569,2.569,0,0,1,1.491.508Z" transform="translate(-187.263 -242.186)"/>
    <path id="Path_210" data-name="Path 210" class="cls-7" d="M267.407,428.033l-3.218,1.411s-.7-.339-1.712-.969c-3.383-2.084-10.181-7.32-5.622-13.493s8.36,4.9,9.856,10.313C267.186,426.918,267.407,428.033,267.407,428.033Z" transform="translate(-182.487 -242.945)"/>
    <path id="Path_211" data-name="Path 211" class="cls-3" d="M299.22,414.88a2.621,2.621,0,0,1,1.774-.8c-.038,1.247-.16,2.239-.16,2.239A15.985,15.985,0,0,1,299.22,414.88Z" transform="translate(-205.728 -243.43)"/>
    <path id="Path_212" data-name="Path 212" class="cls-3" d="M309,418.711a9.488,9.488,0,0,1-1.139.409l-1.524-2.141a15.568,15.568,0,0,1,.63-2.08A5.444,5.444,0,0,1,309,418.711Z" transform="translate(-209.498 -243.865)"/>
    <path id="Path_213" data-name="Path 213" class="cls-7" d="M287.718,433.009l-.541.094c-10.788,1.642-3.557-4.178-3.557-4.178s.47-.447,1.143-1.181c1.3-1.435,3.26-3.952,3.486-6.276.339-3.5.729-6.775,4.855-5.81C297.174,416.6,297.951,430.962,287.718,433.009Z" transform="translate(-196.211 -244.175)"/>
    <rect id="Rectangle_64" data-name="Rectangle 64" class="cls-4" width="20.611" height="5.42" transform="translate(70.712 215.688)"/>
    <rect id="Rectangle_65" data-name="Rectangle 65" class="cls-4" width="26.93" height="18.913" transform="translate(67.437 198.073)"/>
    <rect id="Rectangle_66" data-name="Rectangle 66" class="cls-3" width="20.611" height="5.42" transform="translate(70.514 215.688)"/>
    <rect id="Rectangle_67" data-name="Rectangle 67" class="cls-3" width="26.93" height="18.913" transform="translate(67.353 198.078)"/>
    <rect id="Rectangle_68" data-name="Rectangle 68" class="cls-4" width="20.611" height="5.42" transform="translate(72.067 215.688)"/>
    <path id="Path_214" data-name="Path 214" class="cls-3" d="M274.794,439c.47,1.618.7,2.734.7,2.734l-3.218,1.411s-.7-.339-1.712-.969A8.07,8.07,0,0,1,274.794,439Z" transform="translate(-190.552 -256.626)"/>
    <path id="Path_215" data-name="Path 215" class="cls-3" d="M287.718,446.8l-.541.094c-10.788,1.642-3.557-4.178-3.557-4.178s.47-.447,1.143-1.181A7.106,7.106,0,0,1,287.718,446.8Z" transform="translate(-196.211 -257.971)"/>
    <path id="Path_216" data-name="Path 216" class="cls-7" d="M257.76,456.37s6.041-21.642,14.514-14.961-3.449,16.937-3.449,16.937Z" transform="translate(-183.774 -257.224)"/>
    <circle id="Ellipse_17" data-name="Ellipse 17" class="cls-3" cx="0.677" cy="0.677" r="0.677" transform="translate(76.357 174.752)"/>
    <circle id="Ellipse_18" data-name="Ellipse 18" class="cls-3" cx="0.677" cy="0.677" r="0.677" transform="translate(76.301 177.918)"/>
    <circle id="Ellipse_19" data-name="Ellipse 19" class="cls-3" cx="0.677" cy="0.677" r="0.677" transform="translate(95.952 175.373)"/>
    <circle id="Ellipse_20" data-name="Ellipse 20" class="cls-3" cx="0.677" cy="0.677" r="0.677" transform="translate(80.14 191.581)"/>
    <circle id="Ellipse_21" data-name="Ellipse 21" class="cls-3" cx="0.677" cy="0.677" r="0.677" transform="translate(94.541 180.628)"/>
    <ellipse id="Ellipse_22" data-name="Ellipse 22" class="cls-3" cx="0.5" cy="1" rx="0.5" ry="1" transform="translate(88 187.358)"/>
    <circle id="Ellipse_23" data-name="Ellipse 23" class="cls-3" cx="0.677" cy="0.677" r="0.677" transform="translate(78.672 176.107)"/>
    <circle id="Ellipse_24" data-name="Ellipse 24" class="cls-3" cx="0.677" cy="0.677" r="0.677" transform="translate(94.089 177.41)"/>
    <circle id="Ellipse_25" data-name="Ellipse 25" class="cls-3" cx="0.677" cy="0.677" r="0.677" transform="translate(91.775 182.661)"/>
    <circle id="Ellipse_26" data-name="Ellipse 26" class="cls-3" cx="0.677" cy="0.677" r="0.677" transform="translate(84.656 191.073)"/>
    <circle id="Ellipse_27" data-name="Ellipse 27" class="cls-3" cx="0.677" cy="0.677" r="0.677" transform="translate(83.189 187.742)"/>
    <circle id="Ellipse_28" data-name="Ellipse 28" class="cls-3" cx="0.677" cy="0.677" r="0.677" transform="translate(79.688 180.233)"/>
    <rect id="Rectangle_69" data-name="Rectangle 69" class="cls-3" width="20.611" height="1.981" transform="translate(72.067 215.688)"/>
    <rect id="Rectangle_70" data-name="Rectangle 70" class="cls-4" width="26.93" height="18.913" transform="translate(68.792 198.073)"/>
    <circle id="Ellipse_29" data-name="Ellipse 29" class="cls-3" cx="0.677" cy="0.677" r="0.677" transform="translate(85.56 194.121)"/>
    <circle id="Ellipse_30" data-name="Ellipse 30" class="cls-3" cx="0.677" cy="0.677" r="0.677" transform="translate(81.495 194.968)"/>
    <path id="Path_217" data-name="Path 217" class="cls-7" d="M402,626s3.354,4.39-1.548,11.014-8.939,12.232-7.32,16.354c0,0,7.405-12.308,13.432-12.477S408.629,633.405,402,626Z" transform="translate(-255.265 -355.648)"/>
    <path id="Path_218" data-name="Path 218" class="cls-3" d="M402.207,626a5.407,5.407,0,0,1,.687,1.374c5.876,6.906,9.01,13.352,3.359,13.517-5.265.165-11.578,9.574-13.093,11.927.052.183.113.367.179.541,0,0,7.405-12.307,13.432-12.477S408.836,633.405,402.207,626Z" transform="translate(-255.472 -355.648)"/>
    <path id="Path_219" data-name="Path 219" class="cls-12" d="M424.782,636.785c0,1.543-.174,2.795-.386,2.795s-.386-1.251-.386-2.795.216-.819.428-.819S424.782,635.238,424.782,636.785Z" transform="translate(-271.808 -360.835)"/>
    <path id="Path_220" data-name="Path 220" class="cls-12" d="M427.221,640.627c-1.355.739-2.536,1.186-2.639,1s.913-.941,2.272-1.68.819-.2.941,0S428.581,639.888,427.221,640.627Z" transform="translate(-272.107 -362.832)"/>
    <path id="Path_221" data-name="Path 221" class="cls-7" d="M366.219,626s-3.354,4.39,1.548,11.014,8.939,12.232,7.316,16.354c0,0-7.4-12.308-13.427-12.477S359.59,633.405,366.219,626Z" transform="translate(-237.216 -355.648)"/>
    <path id="Path_222" data-name="Path 222" class="cls-3" d="M366.219,626a5.409,5.409,0,0,0-.687,1.374c-5.876,6.906-9.01,13.352-3.359,13.517,5.265.165,11.578,9.574,13.093,11.927a5.247,5.247,0,0,1-.183.541s-7.4-12.3-13.427-12.463S359.59,633.405,366.219,626Z" transform="translate(-237.216 -355.648)"/>
    <path id="Path_223" data-name="Path 223" class="cls-12" d="M361.44,636.785c0,1.543.174,2.795.386,2.795s.386-1.251.386-2.795-.216-.819-.428-.819S361.44,635.238,361.44,636.785Z" transform="translate(-238.675 -360.835)"/>
    <path id="Path_224" data-name="Path 224" class="cls-12" d="M355.941,640.627c1.355.739,2.536,1.186,2.639,1s-.913-.941-2.272-1.68-.819-.2-.941,0S354.581,639.888,355.941,640.627Z" transform="translate(-235.317 -362.832)"/>
    <ellipse id="Ellipse_31" data-name="Ellipse 31" class="cls-1" cx="35.097" cy="5.387" rx="35.097" ry="5.387" transform="translate(102.77 320.532)"/>
    <path id="Path_225" data-name="Path 225" class="cls-13" d="M391.269,669.3l-.169,1.369-.235,1.938-.094.8-.24,1.938-.1.809-.235,1.934-2.663,22.018c-.24,1.967-3.453,3.5-7.325,3.5H366.226c-3.877,0-7.057-1.529-7.32-3.5l-2.691-22.018-.235-1.934-.1-.809-.24-1.938-.094-.8-.235-1.938-.169-1.369c-.136-1.11,1.6-2.051,3.8-2.051h28.539C389.665,667.25,391.405,668.191,391.269,669.3Z" transform="translate(-235.336 -377.491)"/>
    <path id="Path_226" data-name="Path 226" class="cls-14" d="M290.8,623.15l-.235,1.934H255.245l-.235-1.934Z" transform="translate(-135.035 -329.971)"/>
    <path id="Path_227" data-name="Path 227" class="cls-14" d="M290.84,628.98l-.235,1.938H255.95l-.24-1.938Z" transform="translate(-135.406 -333.058)"/>
    <path id="Path_228" data-name="Path 228" class="cls-14" d="M290.883,634.81l-.235,1.938H256.665l-.235-1.938Z" transform="translate(-135.787 -336.145)"/>
  </g>
</svg>
