<svg xmlns="http://www.w3.org/2000/svg" width="470" height="324.413" viewBox="0 0 470 324.413">
    <defs>
        <linearGradient id="linear-gradient" x1=".5" x2=".5" y1="1" gradientUnits="objectBoundingBox">
            <stop offset="0" stop-color="gray" stop-opacity=".251"/>
            <stop offset=".54" stop-color="gray" stop-opacity=".122"/>
            <stop offset="1" stop-color="gray" stop-opacity=".102"/>
        </linearGradient>
        <style>
            .cls-3{fill:#6c63ff}.cls-7{opacity:.1}.cls-2{fill:#30374e}.cls-4{fill:#444053}.cls-5{fill:#afc0e0}.cls-6{fill:#fff;opacity:.2}.cls-8{fill:#e3e8f4}.cls-9{fill:none;stroke:#535461;stroke-miterlimit:10;stroke-width:2px}.cls-10{opacity:.25}.cls-12{fill:#434175}.cls-13{opacity:.05}.cls-14{fill:#565387}.cls-15{fill:#ee8e9e}
        </style>
    </defs>
    <g id="undraw_maker_launch_crhe" transform="translate(.001)">
        <path id="Path_2" fill="#6c63ff" d="M33.329 284.251c8.307-13.57 27.094-11.2 40.416-4.121s26.616 17.657 41.277 15.626c12.362-1.714 22.5-12.494 27.976-24.93s7.084-26.459 8.625-40.194q2.905-25.882 5.806-51.8c.709-6.317 1.545-12.984 5.1-17.983 4.693-6.593 13.3-8.621 20.657-6.638s13.635 7.3 19 13.228c17.2 18.988 26.946 44.656 41.982 65.788 3.062 4.3 6.519 8.555 11.093 10.631 6.593 2.988 14.163.874 20.6-2.452 21.016-10.833 35.133-32.941 49.008-53.57 6.75-10.026 14.979-20.748 26.208-21.84 11.814-1.174 22.071 8.893 29.014 19.553 22.285 34.3 27.061 81.129 53.982 111.046a43.761 43.761 0 0 0 11.279 9.441 29.1 29.1 0 0 0 4.368 1.916c23.488 8.13 31.318 40.767 13.945 60.117-.375.412-.758.824-1.146 1.236-2.58 2.724-5.5 5.3-8.987 6.111-3.243.75-6.593-.115-9.807-1.051-20.546-6-40.845-15.16-62.087-14.715-20.67.412-40.276 9.96-60.715 13.4-13.743 2.312-27.724 1.85-41.619 1.352q-69.418-2.5-138.807-5.81c-22.961-1.055-45.93-2.06-68.886-3.235-17.686-.919-28.952-2.942-31-23.468-1.797-17.976-17.934-40.232-7.282-57.638z" data-name="Path 2" opacity="0.1" transform="translate(-29.72 -113.463)"/>
        <ellipse id="Ellipse_2" cx="111.256" cy="15.548" class="cls-2" data-name="Ellipse 2" rx="111.256" ry="15.548" transform="translate(214.241 293.318)"/>
        <path id="Path_3" d="M178.46 642.843s5.439-1.236 9 2.419c0 0-2.291 2.061-7.681-.223z" class="cls-3" data-name="Path 3" transform="translate(-117.169 -401.05)"/>
        <path id="Path_4" d="M174.35 643s-3.222 4.566-1.179 9.251c0 0 2.786-1.339 2.707-7.191z" class="cls-3" data-name="Path 4" transform="translate(-113.66 -401.261)"/>
        <path id="Path_5" d="M168.2 623.982s1.933-4.183 11.126.874c0 0-.989 2.794-4.9 2.835s-5.072-1.653-6.226-3.709z" class="cls-3" data-name="Path 5" transform="translate(-111.137 -389.124)"/>
        <path id="Path_6" d="M160.568 625.68s-4.6-.214-4.343 10.269c0 0 2.938.412 4.772-3.041s.861-5.238-.429-7.228z" class="cls-3" data-name="Path 6" transform="translate(-104.09 -391.078)"/>
        <path id="Path_7" d="M159 599.781s2.06-7.285 11.732-2.835c0 0-1.689 6.671-10.632 5.209z" class="cls-3" data-name="Path 7" transform="translate(-105.728 -373.338)"/>
        <path id="Path_8" d="M150.29 575.113s4.36-7.516 13.388-1.418c0 0-2.551 6.952-12.482 3.935z" class="cls-3" data-name="Path 8" transform="translate(-100.607 -359.112)"/>
        <path id="Path_9" d="M146.15 551.279s5.2-6.985 14.159-.952c0 0-4.97 6.156-14.048 2.637z" class="cls-3" data-name="Path 9" transform="translate(-98.173 -345.333)"/>
        <path id="Path_10" d="M142.41 527.2s5.258-7.277 13.842-1.3c0 0-6.049 6.523-13.734 2.913z" class="cls-3" data-name="Path 10" transform="translate(-95.974 -331.032)"/>
        <path id="Path_11" d="M142.23 503.28s5.419-9.284 13.454-3.779c0 0-5.942 8.064-13.339 5.464z" class="cls-3" data-name="Path 11" transform="translate(-95.868 -315.869)"/>
        <path id="Path_12" d="M144 478.843s5.769-9.23 13.636-2.959c0 0-7.047 8.138-13.545 4.595z" class="cls-3" data-name="Path 12" transform="translate(-96.909 -301.725)"/>
        <path id="Path_13" d="M147.365 454.455s7.005-8.781 13.825-5.922c0 0-7.285 9.313-14.011 8.143z" class="cls-3" data-name="Path 13" transform="translate(-98.778 -286.592)"/>
        <path id="Path_14" d="M151.919 430.6s8.052-10.714 13.339-7.673c0 0-5.9 8.279-13.837 9.622z" class="cls-3" data-name="Path 14" transform="translate(-101.271 -271.553)"/>
        <path id="Path_15" d="M159.015 406.939s7.075-8.785 12.774-7.1c0 0-5.954 9.02-13.64 9.758z" class="cls-3" data-name="Path 15" transform="translate(-105.228 -258.172)"/>
        <path id="Path_16" d="M166.741 383.442s7.9-8.489 11.666-7.343c0 0-5.5 9.214-11.917 9.127z" class="cls-3" data-name="Path 16" transform="translate(-110.131 -244.28)"/>
        <path id="Path_17" d="M173.87 358.964s6.63-9.952 10.64-9.478c0 0-3.836 8.732-10.574 10.438z" class="cls-3" data-name="Path 17" transform="translate(-114.47 -228.687)"/>
        <path id="Path_18" d="M180.707 332.324s5.93-7.689 9.4-7.9c0 0-4.413 10.03-9.507 10.3z" class="cls-3" data-name="Path 18" transform="translate(-118.427 -213.96)"/>
        <path id="Path_19" d="M184.025 302.231l5.184-15.531s1.236 13.64-5.769 18.387z" class="cls-3" data-name="Path 19" transform="translate(-120.097 -191.783)"/>
        <path id="Path_20" d="M187.468 264.029s.181-12.688-.548-13.669c0 0 5.139 10.195.882 19.248z" class="cls-3" data-name="Path 20" transform="translate(-122.143 -170.418)"/>
        <path id="Path_21" d="M143.8 604.639s-6.7-3.552-10.207 6.482c0 0 5.975 3.412 11.126-4.042z" class="cls-3" data-name="Path 21" transform="translate(-90.788 -378.349)"/>
        <path id="Path_22" d="M133.64 578.989s-8.126-3.07-11.27 7.368c0 0 6.375 3.771 12.16-4.846z" class="cls-3" data-name="Path 22" transform="translate(-84.192 -363.38)"/>
        <path id="Path_23" d="M125.159 554.1s-6.095-6.226-14.159.96c0 0 5.744 5.435 14.27.738z" class="cls-3" data-name="Path 23" transform="translate(-77.507 -347.522)"/>
        <path id="Path_24" d="M122.121 528.556s-6.181-6.515-13.891.56c0 0 6.865 5.658 14.011 1.051z" class="cls-3" data-name="Path 24" transform="translate(-75.879 -332.368)"/>
        <path id="Path_25" d="M123.556 502.949s-4.681-9.671-13.116-4.809c0 0 5.3 8.5 12.873 6.486z" class="cls-3" data-name="Path 25" transform="translate(-77.178 -315.29)"/>
        <path id="Path_26" d="M126.321 477.266s-4.669-9.849-13.211-4.562c0 0 6.041 8.9 12.914 6.152z" class="cls-3" data-name="Path 26" transform="translate(-78.748 -300.223)"/>
        <path id="Path_27" d="M135.854 447.315s-2.324-10.982-9.7-11.485c0 0 2.341 11.592 8.864 13.549z" class="cls-3" data-name="Path 27" transform="translate(-86.414 -279.46)"/>
        <path id="Path_28" d="M142.237 423.256s-1.512-13.314-7.607-13.376c0 0 .886 10.125 7.051 15.309z" class="cls-3" data-name="Path 28" transform="translate(-91.4 -264.204)"/>
        <path id="Path_29" d="M149.685 399.3s-2.559-10.986-8.435-11.95c0 0 1.442 10.714 8.048 14.719z" class="cls-3" data-name="Path 29" transform="translate(-95.292 -250.958)"/>
        <path id="Path_30" d="M162.08 375.56s-.824-11.567-4.492-13.03c0 0-1.488 10.623 3.564 14.579z" class="cls-3" data-name="Path 30" transform="translate(-104.778 -236.365)"/>
        <path id="Path_31" d="M167.24 353.158s-1.3-11.888-5.073-13.318c0 0-.618 9.515 4.574 14.134z" class="cls-3" data-name="Path 31" transform="translate(-107.576 -223.025)"/>
        <path id="Path_32" d="M176.731 329s-.676-9.688-3.441-11.789c0 0-1.887 10.792 2.2 13.829z" class="cls-3" data-name="Path 32" transform="translate(-113.874 -209.721)"/>
        <path id="Path_33" d="M178.114 300.5l-3.626-15.964s-2.567 13.45 3.944 18.865z" class="cls-3" data-name="Path 33" transform="translate(-114.54 -190.513)"/>
        <path id="Path_34" d="M172.347 267.689s-7.265-10.417-7.207-11.629c0 0 1.459 11.324 10.059 16.438z" class="cls-3" data-name="Path 34" transform="translate(-109.337 -173.769)"/>
        <path id="Path_35" d="M169.637 253.461s-7.195-15-10.067-16.071c0 0 9.1 3.886 10.553 15.576z" class="cls-3" data-name="Path 35" transform="translate(-106.063 -162.792)"/>
        <path id="Path_36" d="M179.952 305.145l-.412-.1c4.059-17.307 4.632-28.219 1.607-30.724l.28-.338c3.19 2.651 2.687 13.431-1.475 31.162z" class="cls-4" data-name="Path 36" transform="translate(-117.804 -184.305)"/>
        <path id="Path_37" d="M151.349 388.431l-.639-.177c.449-1.591.935-3.21 1.455-4.8 4.533-13.9 8.3-26.785 10.611-36.65l.523-.309c-2.316 9.89-5.979 23.253-10.5 37.161-.519 1.585-1.005 3.193-1.45 4.775z" class="cls-4" data-name="Path 37" transform="translate(-100.854 -226.935)"/>
        <path id="Path_38" d="M164.8 538.676c-.091-.087-9.156-9.012-16.12-24.823a95.753 95.753 0 0 1-7.669-29.163c-1.236-12.581.453-26.838 4.121-39.93l.527.544c-8.241 29.385-2.551 53.71 3.8 68.157 6.894 15.659 15.857 24.5 15.947 24.584z" class="cls-4" data-name="Path 38" transform="translate(-94.914 -284.711)"/>
        <path id="Path_39" d="M223.53 558.284s3.3-.754 5.448 1.463c0 0-1.389 1.236-4.644-.136z" class="cls-3" data-name="Path 39" transform="translate(-143.667 -351.381)"/>
        <path id="Path_40" d="M221.062 558.39s-1.945 2.761-.709 5.592c0 0 1.681-.824 1.648-4.347z" class="cls-3" data-name="Path 40" transform="translate(-141.557 -351.517)"/>
        <path id="Path_41" d="M217.34 546.881s1.166-2.526 6.717.532a2.99 2.99 0 0 1-2.959 1.71 3.61 3.61 0 0 1-3.758-2.242z" class="cls-3" data-name="Path 41" transform="translate(-140.027 -344.174)"/>
        <path id="Path_42" d="M212.72 547.91s-2.786-.128-2.629 6.206a2.991 2.991 0 0 0 2.885-1.838 3.614 3.614 0 0 0-.256-4.368z" class="cls-3" data-name="Path 42" transform="translate(-135.762 -345.355)"/>
        <path id="Path_43" d="M211.75 532.247s1.265-4.405 7.1-1.722c0 0-1.018 4.034-6.424 3.148z" class="cls-3" data-name="Path 43" transform="translate(-136.741 -334.624)"/>
        <path id="Path_44" d="M206.51 517.346s2.633-4.533 8.093-.857c0 0-1.545 4.2-7.545 2.378z" class="cls-3" data-name="Path 44" transform="translate(-133.66 -326.037)"/>
        <path id="Path_45" d="M204 502.93s3.148-4.224 8.559-.577c0 0-3 3.709-8.489 1.595z" class="cls-3" data-name="Path 45" transform="translate(-132.184 -317.699)"/>
        <path id="Path_46" d="M201.74 488.376s3.181-4.4 8.369-.783c0 0-3.655 3.944-8.3 1.76z" class="cls-3" data-name="Path 46" transform="translate(-130.856 -309.054)"/>
        <path id="Path_47" d="M201.64 473.91s3.3-5.608 8.13-2.283c0 0-3.593 4.875-8.064 3.3z" class="cls-3" data-name="Path 47" transform="translate(-130.797 -299.887)"/>
        <path id="Path_48" d="M202.68 459.133s3.5-5.584 8.242-1.8c0 0-4.261 4.92-8.192 2.777z" class="cls-3" data-name="Path 48" transform="translate(-131.408 -291.328)"/>
        <path id="Path_49" d="M204.753 444.4s4.232-5.307 8.357-3.577c0 0-4.405 5.629-8.46 4.92z" class="cls-3" data-name="Path 49" transform="translate(-132.566 -282.193)"/>
        <path id="Path_50" d="M207.491 429.973s4.867-6.474 8.064-4.64c0 0-3.564 5.007-8.365 5.818z" class="cls-3" data-name="Path 50" transform="translate(-134.06 -273.097)"/>
        <path id="Path_51" d="M211.8 415.689s4.277-5.312 7.73-4.294c0 0-3.6 5.452-8.241 5.9z" class="cls-3" data-name="Path 51" transform="translate(-136.47 -265.018)"/>
        <path id="Path_52" d="M216.452 401.466s4.776-5.13 7.051-4.438c0 0-3.321 5.567-7.2 5.518z" class="cls-3" data-name="Path 52" transform="translate(-139.416 -256.61)"/>
        <path id="Path_53" d="M220.76 386.663s4.009-6.016 6.432-5.736c0 0-2.316 5.279-6.391 6.313z" class="cls-3" data-name="Path 53" transform="translate(-142.038 -247.176)"/>
        <path id="Path_54" d="M224.906 370.56s3.585-4.648 5.683-4.78c0 0-2.67 6.066-5.748 6.218z" class="cls-3" data-name="Path 54" transform="translate(-144.437 -238.276)"/>
        <path id="Path_55" d="M226.881 352.379l3.128-9.379s.742 8.241-3.5 11.126z" class="cls-3" data-name="Path 55" transform="translate(-145.419 -224.883)"/>
        <path id="Path_56" d="M228.984 329.272s.107-7.669-.334-8.262c0 0 3.107 6.161.532 11.637z" class="cls-3" data-name="Path 56" transform="translate(-146.677 -211.955)"/>
        <path id="Path_57" d="M202.561 535.192s-4.047-2.151-6.181 3.915c0 0 3.614 2.06 6.729-2.439z" class="cls-3" data-name="Path 57" transform="translate(-127.704 -337.66)"/>
        <path id="Path_58" d="M196.446 519.637s-4.916-1.854-6.816 4.455c0 0 3.853 2.279 7.351-2.926z" class="cls-3" data-name="Path 58" transform="translate(-123.736 -328.583)"/>
        <path id="Path_59" d="M191.309 504.631s-3.68-3.762-8.559.577c0 0 3.474 3.3 8.629.445z" class="cls-3" data-name="Path 59" transform="translate(-119.691 -319.02)"/>
        <path id="Path_60" d="M189.478 489.193s-3.737-3.935-8.4.342c0 0 4.15 3.416 8.464.635z" class="cls-3" data-name="Path 60" transform="translate(-118.709 -309.863)"/>
        <path id="Path_61" d="M190.342 473.671s-2.831-5.847-7.932-2.909c0 0 3.206 5.138 7.784 3.923z" class="cls-3" data-name="Path 61" transform="translate(-119.491 -299.512)"/>
        <path id="Path_62" d="M192 458.17s-2.823-5.954-8-2.757c0 0 3.651 5.386 7.809 3.709z" class="cls-3" data-name="Path 62" transform="translate(-120.426 -290.419)"/>
        <path id="Path_63" d="M197.778 440.094s-1.405-6.643-5.868-6.943c0 0 1.413 7.005 5.357 8.188z" class="cls-3" data-name="Path 63" transform="translate(-125.076 -277.885)"/>
        <path id="Path_64" d="M201.615 425.529s-.907-8.048-4.615-8.089c0 0 .536 6.123 4.261 9.259z" class="cls-3" data-name="Path 64" transform="translate(-128.069 -268.648)"/>
        <path id="Path_65" d="M206.137 411.048s-1.545-6.643-5.1-7.228c0 0 .874 6.474 4.867 8.9z" class="cls-3" data-name="Path 65" transform="translate(-130.444 -260.641)"/>
        <path id="Path_66" d="M213.634 396.7s-.507-7.005-2.711-7.879c0 0-.9 6.424 2.151 8.814z" class="cls-3" data-name="Path 66" transform="translate(-136.181 -251.822)"/>
        <path id="Path_67" d="M216.756 383.152s-.783-7.187-3.066-8.052c0 0-.375 5.769 2.765 8.547z" class="cls-3" data-name="Path 67" transform="translate(-137.873 -243.756)"/>
        <path id="Path_68" d="M222.515 368.549s-.412-5.856-2.06-7.129c0 0-1.141 6.527 1.331 8.361z" class="cls-3" data-name="Path 68" transform="translate(-141.704 -235.713)"/>
        <path id="Path_69" d="M223.351 351.321l-2.192-9.651s-1.554 8.134 2.382 11.406z" class="cls-3" data-name="Path 69" transform="translate(-142.094 -224.101)"/>
        <path id="Path_70" d="M219.845 331.49s-4.389-6.292-4.356-7.03c0 0 .878 6.845 6.078 9.935z" class="cls-3" data-name="Path 70" transform="translate(-138.939 -213.983)"/>
        <path id="Path_71" d="M218.176 322.894s-4.352-9.066-6.086-9.7a11.83 11.83 0 0 1 6.379 9.42z" class="cls-3" data-name="Path 71" transform="translate(-136.941 -207.357)"/>
        <path id="Path_72" d="M224.42 354.12l-.26-.062c2.472-10.463 2.8-17.06.972-18.572l.169-.206c1.941 1.607 1.636 8.126-.881 18.84z" class="cls-4" data-name="Path 72" transform="translate(-144.037 -220.344)"/>
        <path id="Path_73" d="M207.147 404.5l-.387-.111c.272-.96.569-1.937.882-2.884 2.732-8.4 5.015-16.195 6.412-22.157l.317-.19c-1.4 5.975-3.614 14.06-6.35 22.47-.313.954-.606 1.914-.874 2.872z" class="cls-4" data-name="Path 73" transform="translate(-133.807 -246.143)"/>
        <path id="Path_74" d="M215.272 495.31a51.981 51.981 0 0 1-9.746-15.008 57.987 57.987 0 0 1-4.636-17.629 67.6 67.6 0 0 1 2.5-24.143l.317.33c-4.982 17.765-1.541 32.471 2.3 41.207a51.223 51.223 0 0 0 9.643 14.859z" class="cls-4" data-name="Path 74" transform="translate(-130.212 -281.048)"/>
        <path id="Path_75" d="M203.739 541.135a15.76 15.76 0 0 0-3.091.882C178.421 550.893 178.792 609 178.792 609h-6.544s-2.06-24.935-11.039-60.509c-8.089-32.006 25.087-60.69 31.824-66.13.758-.606 1.179-.927 1.179-.927 33.415 12.276 9.527 59.701 9.527 59.701z" class="cls-5" data-name="Path 75" transform="translate(-106.284 -306.27)"/>
        <path id="Path_76" d="M196.673 482.451c-.771-.354-1.566-.692-2.411-1 0 0-.412.321-1.179.927-6.737 5.439-39.913 34.124-31.824 66.13 8.979 35.574 11.019 60.5 11.019 60.5h3.68s-2.04-24.935-11.039-60.509c-8.057-31.858 24.798-60.435 31.754-66.048z" class="cls-6" data-name="Path 76" transform="translate(-106.314 -306.282)"/>
        <path id="Path_77" d="M461.271 548.495c-9 35.574-11.027 60.5-11.027 60.5h-6.556s.412-60.723-23.377-67.5a12.993 12.993 0 0 0-1.57-.367s-23.9-47.426 9.527-59.7c0 0 .338.251.948.742 6.194 4.959 40.235 33.948 32.055 66.325z" class="cls-5" data-name="Path 77" transform="translate(-253.57 -306.27)"/>
        <path id="Path_78" d="M250.946 541.147a15.752 15.752 0 0 0-3.091.882 403.517 403.517 0 0 1-7.615-59.652c.758-.606 1.178-.927 1.178-.927 33.416 12.272 9.528 59.697 9.528 59.697z" class="cls-7" data-name="Path 78" transform="translate(-153.491 -306.282)"/>
        <path id="Path_79" d="M429.246 482.214a371.278 371.278 0 0 1-8.9 59.339 12.993 12.993 0 0 0-1.57-.367s-23.9-47.426 9.527-59.7c-.017-.013.321.238.943.728z" class="cls-7" data-name="Path 79" transform="translate(-253.588 -306.304)"/>
        <path id="Path_80" d="M317.969 300.217q-3.461 13.656-8.114 28.021s-14.719 15.333-50.273 0a269.668 269.668 0 0 1-7.459-27.036c-8.6-37.429-18.914-108.755 3.062-182.017a272.689 272.689 0 0 1 27.684-62.825s18.774 21.556 32.554 62.812 22.549 102.228 2.546 181.045z" class="cls-8" data-name="Path 80" transform="translate(-154.546 -56.36)"/>
        <circle id="Ellipse_3" cx="29.517" cy="29.517" r="29.517" class="cls-5" data-name="Ellipse 3" transform="translate(101.794 91.468)"/>
        <path id="Path_81" d="M339.453 320.139a20.933 20.933 0 0 1-34.2 16.19 21.153 21.153 0 0 1-3.923-4.257 20.606 20.606 0 0 1-1.352-2.221 20.893 20.893 0 0 1-2.386-9.713v-.5a20.958 20.958 0 0 1 15.247-19.664 21.654 21.654 0 0 1 5.044-.766h.626a20.933 20.933 0 0 1 20.944 20.931z" class="cls-3" data-name="Path 81" transform="translate(-187.208 -199.138)"/>
        <path id="Path_82" d="M334.153 119.172c-33.489 16.034-60.253 0-60.253 0a272.69 272.69 0 0 1 27.7-62.812s18.778 21.556 32.553 62.812z" class="cls-5" data-name="Path 82" transform="translate(-173.28 -56.36)"/>
        <path id="Path_83" d="M332.342 648.14q-2.349 9.247-5.233 18.811-1.368 4.562-2.885 9.2s-14.719 15.333-50.273 0c0 0-1.154-3.251-2.884-9.2-1.294-4.492-2.905-10.512-4.586-17.839 0 0 13.236 5.65 32.022 5.65a88.224 88.224 0 0 0 33.839-6.622z" class="cls-5" data-name="Path 83" transform="translate(-168.918 -404.283)"/>
        <path id="Path_84" d="M333.652 693.79q-1.368 4.562-2.885 9.2s-14.719 15.333-50.273 0c0 0-1.154-3.251-2.885-9.2-.003 0 36.235 10.426 56.043 0z" class="cls-8" data-name="Path 84" transform="translate(-175.462 -431.122)"/>
        <path id="Path_85" d="M312.861 299.906l-.045.033-15.206 19.632v.5a20.892 20.892 0 0 0 2.39 9.711l17.917-30.642z" class="cls-6" data-name="Path 85" transform="translate(-187.22 -199.097)"/>
        <path id="Path_86" d="M323.036 341.813l-12.453 18.646a21.154 21.154 0 0 1-3.923-4.257l14.835-15.923z" class="cls-6" data-name="Path 86" transform="translate(-192.541 -223.284)"/>
        <path id="Path_87" d="M267.506 328.236a270.083 270.083 0 0 1-7.459-27.036c-8.6-37.433-18.914-108.759 3.062-182.021a273.7 273.7 0 0 1 24.251-56.9c-2.79-3.911-4.533-5.9-4.533-5.9a272.662 272.662 0 0 0-27.691 62.808c-21.976 73.263-11.662 144.589-3.062 182.021a270.1 270.1 0 0 0 7.459 27.036c14.048 6.053 24.84 7.323 32.76 6.647-6.767-.524-14.983-2.432-24.787-6.655z" class="cls-6" data-name="Path 87" transform="translate(-154.516 -56.366)"/>
        <path id="Path_88" d="M966.7 660.373s19.26-23.966 17.983-47.969a46.584 46.584 0 0 1 7.64-28.458 78.353 78.353 0 0 1 9.066-11.126" class="cls-9" data-name="Path 88" transform="translate(-580.596 -360)"/>
        <path id="Path_89" d="M1048.434 530.355c-1.376 3.342.684 15.527.684 15.527s10.042-7.2 11.418-10.545a6.544 6.544 0 1 0-12.1-4.982z" class="cls-3" data-name="Path 89" transform="translate(-628.371 -332.65)"/>
        <path id="Path_90" d="M1006.17 560.029c.663 3.552 9.016 12.659 9.016 12.659s4.533-11.5 3.853-15.057a6.545 6.545 0 0 0-12.869 2.4z" class="cls-3" data-name="Path 90" transform="translate(-603.735 -347.926)"/>
        <path id="Path_91" d="M973.521 632.852c2.365 2.732 14.175 6.379 14.175 6.379s-1.912-12.21-4.277-14.946a6.543 6.543 0 1 0-9.891 8.568z" class="cls-3" data-name="Path 91" transform="translate(-583.67 -388.929)"/>
        <path id="Path_92" d="M964.493 697.76c1.867 3.095 12.89 8.682 12.89 8.682s.181-12.362-1.686-15.453a6.545 6.545 0 1 0-11.2 6.77z" class="cls-3" data-name="Path 92" transform="translate(-578.743 -427.617)"/>
        <path id="Path_93" d="M1036.259 598.057c-3.354 1.339-15.519-.845-15.519-.845s7.3-9.968 10.66-11.311a6.545 6.545 0 1 1 4.858 12.156z" class="cls-3" data-name="Path 93" transform="translate(-612.367 -367.415)"/>
        <path id="Path_94" d="M1025.054 671.686c-3.6.276-14.554-5.447-14.554-5.447s9.947-7.331 13.553-7.607a6.547 6.547 0 1 1 1 13.056z" class="cls-3" data-name="Path 94" transform="translate(-606.347 -410.44)"/>
        <path id="Path_95" d="M1001.907 742.448c-3.507.882-15.267-2.909-15.267-2.909s8.567-8.9 12.074-9.783a6.544 6.544 0 1 1 3.193 12.692z" class="cls-3" data-name="Path 95" transform="translate(-592.319 -452.15)"/>
        <path id="Path_96" d="M1048.434 530.355c-1.376 3.342.684 15.527.684 15.527s10.042-7.2 11.418-10.545a6.544 6.544 0 1 0-12.1-4.982z" class="cls-10" data-name="Path 96" transform="translate(-628.371 -332.65)"/>
        <path id="Path_97" d="M1006.17 560.029c.663 3.552 9.016 12.659 9.016 12.659s4.533-11.5 3.853-15.057a6.545 6.545 0 0 0-12.869 2.4z" class="cls-10" data-name="Path 97" transform="translate(-603.735 -347.926)"/>
        <path id="Path_98" d="M973.521 632.852c2.365 2.732 14.175 6.379 14.175 6.379s-1.912-12.21-4.277-14.946a6.543 6.543 0 1 0-9.891 8.568z" class="cls-10" data-name="Path 98" transform="translate(-583.67 -388.929)"/>
        <path id="Path_99" d="M964.493 697.76c1.867 3.095 12.89 8.682 12.89 8.682s.181-12.362-1.686-15.453a6.545 6.545 0 1 0-11.2 6.77z" class="cls-10" data-name="Path 99" transform="translate(-578.743 -427.617)"/>
        <path id="Path_100" d="M1036.259 598.057c-3.354 1.339-15.519-.845-15.519-.845s7.3-9.968 10.66-11.311a6.545 6.545 0 1 1 4.858 12.156z" class="cls-10" data-name="Path 100" transform="translate(-612.367 -367.415)"/>
        <path id="Path_101" d="M1025.054 671.686c-3.6.276-14.554-5.447-14.554-5.447s9.947-7.331 13.553-7.607a6.547 6.547 0 1 1 1 13.056z" class="cls-10" data-name="Path 101" transform="translate(-606.347 -410.44)"/>
        <path id="Path_102" d="M1001.907 742.448c-3.507.882-15.267-2.909-15.267-2.909s8.567-8.9 12.074-9.783a6.544 6.544 0 1 1 3.193 12.692z" class="cls-10" data-name="Path 102" transform="translate(-592.319 -452.15)"/>
        <path id="Path_103" d="M967.12 688.715s27.32-14.109 35.88-36.567a46.564 46.564 0 0 1 18.519-22.924 78.267 78.267 0 0 1 12.774-6.494" class="cls-9" data-name="Path 103" transform="translate(-580.843 -389.344)"/>
        <path id="Path_104" d="M1135.336 585.852c-2.613 2.5-5.666 14.476-5.666 14.476s12.1-2.518 14.711-5.015a6.551 6.551 0 0 0-9.045-9.478z" class="cls-3" data-name="Path 104" transform="translate(-676.41 -366.587)"/>
        <path id="Path_105" d="M1090 595.889c-.824 3.519 3.111 15.247 3.111 15.247s8.773-8.682 9.622-12.222a6.544 6.544 0 1 0-12.733-3.025z" class="cls-3" data-name="Path 105" transform="translate(-653.019 -370.604)"/>
        <path id="Path_106" d="M1030.532 649.226c1.055 3.457 10.376 11.575 10.376 11.575s3.2-11.95 2.147-15.391a6.546 6.546 0 1 0-12.523 3.816z" class="cls-3" data-name="Path 106" transform="translate(-617.956 -399.951)"/>
        <path id="Path_107" d="M995.985 704.916c.453 3.589 8.266 13.162 8.266 13.162s5.176-11.221 4.718-14.81a6.544 6.544 0 1 0-12.984 1.648z" class="cls-3" data-name="Path 107" transform="translate(-597.782 -433.331)"/>
        <path id="Path_108" d="M1099.776 646.636c-3.614-.132-13.846-7.059-13.846-7.059s10.714-6.152 14.328-6.02a6.544 6.544 0 0 1-.482 13.079z" class="cls-3" data-name="Path 108" transform="translate(-650.694 -395.708)"/>
        <path id="Path_109" d="M1062.091 710.05c-3.408-1.208-11.1-10.879-11.1-10.879s12.07-2.666 15.473-1.459a6.545 6.545 0 1 1-4.372 12.338z" class="cls-3" data-name="Path 109" transform="translate(-630.152 -433.243)"/>
        <path id="Path_110" d="M1010.894 765.108c-3.56-.614-12.774-8.847-12.774-8.847s11.443-4.665 15-4.051a6.544 6.544 0 1 1-2.225 12.9z" class="cls-3" data-name="Path 110" transform="translate(-599.068 -465.436)"/>
        <path id="Path_111" fill="url(#linear-gradient)" d="M815.636 508.273l-21.176-30.712s-.412-7.6-1.78-9.379-.3-5.728-.3-5.728 1.483-2.172.2-2.369-.2-5.04-.2-5.04l-.1-7.7s1.187-7.417.2-9.181a2.913 2.913 0 0 1 .1-3.161s1.187-4.248 0-5.332-.89-7.706-.593-12.939-2.081-8.2-2.081-8.987-7.829-8.493-7.829-9.181-4.945-3.556-7.916-4.347-4.455-1.38-4.356-1.776-4.652-1.974-4.652-1.974-4.158-.3-5.744-2.374-6.424-2.67-6.564-2.691c-.029-.136-.062-.276-.091-.412s-.062-.3-.091-.445c.375-.63.721-1.273 1.034-1.937.095-.2.186-.412.272-.6a8.453 8.453 0 0 0 4.875-1.512 6.639 6.639 0 0 0 2.37-4.735 10.382 10.382 0 0 0-1.158-5.262c-.865-1.78-2.139-3.622-1.7-5.551.194-.824.692-1.566.948-2.382a6.273 6.273 0 0 0-.713-4.677c-.75-1.434-1.793-2.695-2.625-4.084a15.946 15.946 0 0 1-2.089-5.769 9.018 9.018 0 0 0-.775-3.144 5.857 5.857 0 0 0-1.735-1.751 17.336 17.336 0 0 0-10.64-3.227c-2.695.095-5.382.824-8.056.49a28.989 28.989 0 0 1-4.706-1.236c-3.321-.981-7.149-1.385-10.042.515s-4.042 5.637-6 8.559c-1.731 2.588-4.269 4.755-5.588 7.491a.586.586 0 0 1 .041-.157 8.963 8.963 0 0 0-.738 1.994 14.212 14.212 0 0 0 .441 6.548 4.543 4.543 0 0 0 1.6 2.926c.96.614 2.32.478 3.457.68-.041.185-.091.375-.132.565a22.623 22.623 0 0 0 15.7 26.373v.6a14.933 14.933 0 0 1-.1 1.7s-9.952-2.06-12.626-.659-7.92 2.472-8.711 3.255-2.769.2-4.533 4.842-1.978 9.379-4.257 11.538-3.461 3.655-3.56 5.238.3 1.974-.6 2.472-2.176 2.567-1.78 3.358a2.808 2.808 0 0 1-1.088 2.959 3.308 3.308 0 0 0-1.389 2.963s-.593 2.176-1.978 2.666-2.279 3.754-2.279 3.754l-4.5 5.172-8.9-9.849a3.75 3.75 0 0 0-5.3-.272l-4.368 3.939a8.629 8.629 0 0 0-4.372 2.6 11.269 11.269 0 0 0-2.262 3.371l-2.394 2.151a6.078 6.078 0 0 0-.614 6.709l5.7 6.3.037.054a10.066 10.066 0 0 0-5.514 2.246c-8.509 7.5-8.612 14.423-7.323 17.575s12.074 15.309 12.074 15.309 6.268 8.147 15.317 12.482l-.07.07c-.177.19-.354.412-.527.618l-.148.19-.136.19-.161.239c-.045.062-.087.128-.128.194s-.115.185-.169.284l-.111.19c-.066.124-.136.251-.2.383l-.066.128c-.082.173-.165.35-.243.536-.029.066-.054.136-.082.2-.049.128-.1.26-.152.412s-.062.169-.091.256-.087.255-.128.387-.058.185-.082.276-.082.289-.12.437l-.07.268c-.053.227-.107.462-.152.709a1.736 1.736 0 0 1-.049.28q-.049.247-.087.507c-.021.12-.033.239-.049.359l-.062.49-.037.379c0 .181-.033.371-.045.56a1.95 1.95 0 0 1-.021.346c0 .313-.033.626-.037.956-.2 11.538.478 13.232.478 13.232a6.41 6.41 0 0 0 5.254 3.944 6.716 6.716 0 0 0 1.694-.091c5.147-.89 17.221-2.963 21.477-2.172 2.559.474 7.3-.227 10.673-.865l.886-.169.618 1.962 1.957-.536 1.648.96 1.051.6c1.953 6.626 9.89 4.368 9.89 4.368l1.863 1.08 19.1.495a39.134 39.134 0 0 0 6.762 3.247 6.279 6.279 0 0 0 .96.21 43.349 43.349 0 0 0 5.324.1c1.463-.037 2.6-.1 2.6-.1s-.194-5.188-.474-10.994a156.533 156.533 0 0 0 17.688-1.45c10.2-1.792 14.46-11.068 16.026-16.026a46.644 46.644 0 0 1 1 6.152 43.976 43.976 0 0 0 1.587 5.332 18.018 18.018 0 0 0 2.176 3.948c7.524-2.567 2.971-6.416 1.385-8.1s1.092-3.062 1.092-3.062 2.06-1.38 1.879-2.666-.3-2.666 6.432-2.567 6.449-5.538 6.449-5.538zm-104.527-63.048c.087.565 1.026 6.651 1.875 8.241a10.876 10.876 0 0 1 .223 3.251c-3.989-.317-8.143-.486-8.143-.486a.956.956 0 0 1 .214.507l-.626-.14-.911-.222 7.347-11.176zm-14.554 23.159l6.9 1.1.581.091a22.725 22.725 0 0 0-.358 3.259c0 .1.157.227.379.371a8.9 8.9 0 0 0-.136 1.648c.111.548 3.338 1.727 7.038 2.707-.049.2-.1.387-.148.565-3.268-1.718-8.419-2.522-9.012-3.8s-18.131-7.417-18.131-7.417-.639-.338-1.743-.874l4.615.874 1.269-.128a69.195 69.195 0 0 0 8.744 1.6z" data-name="Path 111" transform="translate(-390.512 -222.145)"/>
        <path id="Path_112" d="M828.783 708.226s-2.744 16.578-16.677 19.03-60.435 1.962-60.435 1.962-26.587-3.824-36.2-26.29-15.795-31.4-7.553-31.787 52.684 15.012 55.218 15.206 68.099-34.147 65.647 21.879z" class="cls-12" data-name="Path 112" transform="translate(-426.191 -417.801)"/>
        <path id="Path_113" d="M828.783 708.226s-2.744 16.578-16.677 19.03-60.435 1.962-60.435 1.962-26.587-3.824-36.2-26.29-15.795-31.4-7.553-31.787 52.684 15.012 55.218 15.206 68.099-34.147 65.647 21.879z" class="cls-13" data-name="Path 113" transform="translate(-426.191 -417.801)"/>
        <path id="Path_114" d="M703.34 770.06a6.361 6.361 0 0 0 5.209 3.919 6.77 6.77 0 0 0 1.677-.091c5.1-.882 17.072-2.942 21.288-2.159 2.538.474 7.232-.227 10.574-.857 2.225-.412 3.849-.824 3.849-.824s-3.924-13.048-4.419-13.438-17.657-10.693-17.657-10.693l-13.6-.977h-.041a7.149 7.149 0 0 0-4.607 2.707c-1.438 1.735-2.67 4.586-2.753 9.259-.188 11.485.48 13.154.48 13.154z" class="cls-14" data-name="Path 114" transform="translate(-425.458 -461.194)"/>
        <path id="Path_115" d="M703.342 770.078a6.361 6.361 0 0 0 5.209 3.922 55.841 55.841 0 0 1-3.709-5.39l.07-9.515a16.725 16.725 0 0 1 5.357-14.122h-.041s-7.162.486-7.36 11.95.474 13.155.474 13.155z" class="cls-13" data-name="Path 115" transform="translate(-425.461 -461.212)"/>
        <path id="Path_116" d="M835.9 712.976l12.655-9.89 19.916-19.623s-2.151-.1-5.394-.243c-.824.515-3.07 2.135-3.152 4.121-.1 2.4-5.386.165-8.13 1.537s-16.186 18.576-18.543 18.465-4.216-1.2-5.2.474c0 .037-.045.07-.07.107z" class="cls-7" data-name="Path 116" transform="translate(-499.039 -424.907)"/>
        <path id="Path_117" d="M709.6 747.656c.449.218.9.412 1.368.626 9.618 4.121 21.486 12.774 22.371 14.324.536.956 7.417 5.134 12.729 8.266 2.225-.412 3.849-.824 3.849-.824S745.994 757 745.5 756.61s-17.657-10.693-17.657-10.693l-13.6-.977h-.043a7.179 7.179 0 0 0-4.6 2.716z" class="cls-7" data-name="Path 117" transform="translate(-429.44 -461.194)"/>
        <path id="Path_118" d="M643.979 655.05c1.273 3.14 11.95 15.21 11.95 15.21s6.766 8.827 16.384 12.947 21.485 12.774 22.367 14.324c.569 1.01 8.241 5.625 13.631 8.8l1.207.7 2.678 1.553 1.418.824s3.3-2.637 6.556-5.291 6.441-5.254 6.494-5.4c.095-.293 1.368-3.63 1.076-3.824-.153-.1-.824-1.463-2.06-3.037a13.935 13.935 0 0 0-5-4.121 14.081 14.081 0 0 1-6.474-6.75s-.412-.313-1.084-.725a13.124 13.124 0 0 0-4.409-1.966c-2.163-.272-6.181-4.685-6.181-4.685a12.116 12.116 0 0 1-3.828-4.022c-1.03-2.151-16.244-12.6-17.653-13.565l36.885 23.686 8.827 5.674 12.655-9.89 19.92-19.623s-2.678-.132-6.593-.3c-9.68-.412-26.871-1.076-29.043-.585a16.552 16.552 0 0 1-5.4.35s-4.9.223-8.134-1.488-8.344-2.51-8.934-3.775-17.954-7.355-17.954-7.355-23.641-12.556-32.08-5.1-8.5 14.298-7.221 17.434z" class="cls-12" data-name="Path 118" transform="translate(-390.504 -396.709)"/>
        <path id="Path_119" d="M829.82 467.023l3.041 10.1 3.923 22.759 14.422.981 4.174-6.923 4.182-6.911s2.6-9.2 4.463-18.094c1.648-7.871 2.728-15.51.931-16.339-1.591-.738-2.637-3.387-3.3-6.239-.087-.35-.165-.709-.239-1.067a55.47 55.47 0 0 1-.956-7.314s-30.217-1.566-26 10.891a19.855 19.855 0 0 1 1.137 6.626 15.741 15.741 0 0 1-.1 1.685 14.134 14.134 0 0 1-5.678 9.845z" class="cls-15" data-name="Path 119" transform="translate(-500.12 -280.687)"/>
        <path id="Path_120" d="M814.58 492.8l1.08 17.167 2.452 14.616 2.748 6.77 2.452 37.037s23.657 2.736 29.41-.049a2.529 2.529 0 0 0 1.042-.824c6.948-10.479 4.669-40.873 4.669-40.873l2.65-19.627-1.768-10.186-4.265-.453-3.3-.35s-.742.915-1.813 2.328c-2.909 3.841-8.241 11.394-7.9 14.546.486 4.319-.589 8.732-2.258 9.42s-3.041 1.863-3.334.688a5.335 5.335 0 0 1-.3-3.14c.293-1.669-1.277-6.77-1.277-6.77s-2.646-5.983-2.472-8.534-.293-5.5-1.08-6.181-1.863-1.376-.981-4.533-3.869-9.251-3.869-9.251z" class="cls-8" data-name="Path 120" transform="translate(-491.16 -308.134)"/>
        <path id="Path_121" d="M890.35 519.991l.981 29.336 5.666 3.14a2.533 2.533 0 0 0 1.043-.824c6.952-10.5 4.673-40.886 4.673-40.886l2.65-19.623-1.768-10.182-4.269-.453c1.648-7.871 2.728-15.51.935-16.339-1.595-.738-2.641-3.387-3.321-6.239l-3.049 20.768s.256 1.871.346 3.8a10.9 10.9 0 0 1-.247 3.655c-.688 1.768-.2 4.908-.2 4.908-1.768 3.115-2.65 8.888-3.082 14.464-.58 7.412-.358 14.475-.358 14.475z" class="cls-7" data-name="Path 121" transform="translate(-535.683 -292.448)"/>
        <path id="Path_122" d="M897.8 456.82s4.945.614 6.511 2.674 5.689 2.345 5.689 2.345 4.71 1.57 4.611 1.962 1.372.985 4.319 1.768 7.829 3.63 7.829 4.319 7.751 8.336 7.751 9.123 2.357 3.709 2.06 8.926-.589 11.773.589 12.853 0 5.3 0 5.3a2.885 2.885 0 0 0-.062 3.14c.981 1.768-.194 9.127-.194 9.127l.095 7.652s-1.08 4.8.2 5-.2 2.353-.2 2.353-1.08 3.927.3 5.691 1.764 9.321 1.764 9.321l21.016 30.494s.3 5.592-6.375 5.493-6.593 1.277-6.379 2.551-1.863 2.65-1.863 2.65-2.65 1.372-1.08 3.041 6.082 5.493-1.372 8.044a17.786 17.786 0 0 1-2.159-3.923 44.425 44.425 0 0 1-1.57-5.3s-.688-7.459-2.06-8.439-1.178-5.691-1.178-5.691 1.961-3.824-.783-5.394-42.621-23.624-42.621-23.624l-.981-29.336s-.688-21.679 3.433-28.94c0 0-.49-3.14.2-4.9s-.1-7.459-.1-7.459z" class="cls-14" data-name="Path 122" transform="translate(-536.451 -291.801)"/>
        <path id="Path_123" d="M793.071 483.76s-9.861-2.031-12.51-.659-7.829 2.472-8.654 3.239-2.749.2-4.512 4.809-1.966 9.317-4.22 11.476-3.433 3.63-3.531 5.2.293 1.961-.589 2.472-2.159 2.551-1.768 3.338 20.443 18.028 20.443 18.028.985 6.593 1.867 8.241-.981 24.626-2.942 26.2 13.244 1.426 13.244 1.426.684-15.061 1.273-15.848-.412-16.895-.412-16.895-.1-13.734 1.178-17.365 1.133-15.684 1.133-15.684 1.129-7.24 2.5-8.93-2.5-9.048-2.5-9.048z" class="cls-7" data-name="Path 123" transform="translate(-457.433 -306.972)"/>
        <path id="Path_124" d="M792.361 483.05s-9.865-2.032-12.515-.659-7.829 2.452-8.633 3.239-2.744.194-4.533 4.8-1.962 9.321-4.22 11.48-3.432 3.63-3.531 5.2.3 1.961-.585 2.452-2.159 2.551-1.768 3.334 20.406 18.053 20.406 18.053.981 6.593 1.863 8.241-.981 24.621-2.942 26.191 13.244 1.426 13.244 1.426.688-15.061 1.278-15.844-.412-16.895-.412-16.895-.095-13.734 1.178-17.365 1.133-15.7 1.133-15.7 1.129-7.24 2.5-8.925-2.463-9.028-2.463-9.028z" class="cls-14" data-name="Path 124" transform="translate(-457.016 -306.555)"/>
        <path id="Path_125" d="M840.425 448.871a19.859 19.859 0 0 1 1.137 6.626 22.512 22.512 0 0 0 25.817-10.2 55.471 55.471 0 0 1-.956-7.314s-30.214-1.569-25.998 10.888z" class="cls-7" data-name="Path 125" transform="translate(-506.118 -280.687)"/>
        <path id="Path_126" d="M804.82 394.794a22.466 22.466 0 1 0 .486-4.669 22.466 22.466 0 0 0-.486 4.669z" class="cls-15" data-name="Path 126" transform="translate(-485.422 -242.112)"/>
        <path id="Path_127" d="M741.688 553.06l-5.394 1.669a2.8 2.8 0 0 1-1.08 2.942 3.283 3.283 0 0 0-1.372 2.946s-.589 2.155-1.962 2.646-2.258 3.709-2.258 3.709l-4.512 5.2s-1.669 1.372-1.372 2.06-1.768.882-1.768.882l1.08 17.48 9.321 1.768 5.769-.589 4.71-1.768 4.121-2.472 1.879-4.768 8.242-12.556z" class="cls-14" data-name="Path 127" transform="translate(-436.712 -348.383)"/>
        <path id="Path_128" d="M690.975 594.72s-11.95-17.27-20.9-7.949 3.63 24.428 6.573 23.937 16.973-1.273 16.973-1.273z" class="cls-15" data-name="Path 128" transform="translate(-404.345 -366.579)"/>
        <rect id="Rectangle_49" width="25.31" height="28.763" class="cls-2" data-name="Rectangle 49" rx="12.62" transform="rotate(-42.05 427.654 -220.86)"/>
        <rect id="Rectangle_50" width="25.31" height="28.763" class="cls-7" data-name="Rectangle 50" rx="12.62" transform="rotate(-42.05 427.654 -220.86)"/>
        <rect id="Rectangle_51" width="25.31" height="28.763" class="cls-2" data-name="Rectangle 51" rx="12.62" transform="rotate(-42.05 425.973 -222.009)"/>
        <circle id="Ellipse_4" cx="5.592" cy="5.592" r="5.592" class="cls-3" data-name="Ellipse 4" transform="translate(271.482 225.474)"/>
        <circle id="Ellipse_5" cx="5.592" cy="5.592" r="5.592" class="cls-7" data-name="Ellipse 5" transform="translate(271.482 225.474)"/>
        <circle id="Ellipse_6" cx="5.592" cy="5.592" r="5.592" class="cls-3" data-name="Ellipse 6" transform="translate(271.795 224.766)"/>
        <path id="Path_129" d="M706.5 610.1c-.1 12.951 26.686 15.7 26.686 15.7l6.84 1.088 3.066.486 1.277-12.642s-1.405-.21-3.161-.618c-2.592-.606-5.95-1.648-6.655-3.111-1.174-2.456-27.959-13.85-28.053-.903z" class="cls-15" data-name="Path 129" transform="translate(-427.617 -378.346)"/>
        <path id="Path_130" d="M806 390.258a2.666 2.666 0 0 1 1.648.734c.758.8.8 2.229 1.784 2.724a2.027 2.027 0 0 0 1.17.136c2.608-.371 4.121-3.3 6.622-4.121a6.676 6.676 0 0 1 4.389.375 3.268 3.268 0 0 1 1.455.935c.824 1.084.251 2.679.639 3.993.54 1.821 2.716 2.547 4.6 2.786s4.005.371 5.262 1.793a4.775 4.775 0 0 1 .935 3.8 3 3 0 0 0 0 1.405c.519 1.471 3.066 1.236 3.729.091.486-.845.338-1.545 1.484-1.78a4.886 4.886 0 0 1 2.4.412 17.6 17.6 0 0 0 6.214.956A22.47 22.47 0 1 0 806 390.258z" class="cls-7" data-name="Path 130" transform="translate(-486.116 -242.245)"/>
        <path id="Path_131" d="M826.616 387.046a3 3 0 0 1 0-1.405 4.78 4.78 0 0 0-.935-3.8c-1.236-1.422-3.379-1.558-5.262-1.793s-4.059-.96-4.6-2.781c-.387-1.315.2-2.913-.639-4a3.214 3.214 0 0 0-1.451-.931 6.772 6.772 0 0 0-4.393-.379c-2.5.824-4.014 3.758-6.622 4.121a2.027 2.027 0 0 1-1.17-.136c-.985-.495-1.026-1.92-1.784-2.72-1.191-1.261-3.453-.449-4.912-1.385a4.514 4.514 0 0 1-1.582-2.905 14.15 14.15 0 0 1-.437-6.507c.853-3.651 4.121-6.152 6.181-9.268 1.941-2.905 3.029-6.593 5.946-8.505s6.663-1.488 9.952-.511a30.716 30.716 0 0 0 4.66 1.236c2.654.326 5.316-.412 7.986-.486a17.15 17.15 0 0 1 10.545 3.2 5.832 5.832 0 0 1 1.723 1.743 8.916 8.916 0 0 1 .762 3.124 15.97 15.97 0 0 0 2.06 5.74c.824 1.38 1.859 2.633 2.6 4.059a6.228 6.228 0 0 1 .7 4.644c-.251.824-.75 1.537-.935 2.365-.437 1.916.824 3.746 1.685 5.514a10.342 10.342 0 0 1 1.146 5.229 6.593 6.593 0 0 1-2.349 4.7 8.439 8.439 0 0 1-4.974 1.508 17.629 17.629 0 0 1-6.338-.952 4.934 4.934 0 0 0-2.4-.412c-1.146.235-1 .935-1.484 1.78-.617 1.167-3.16 1.384-3.679-.087z" class="cls-12" data-name="Path 131" transform="translate(-478.241 -225.072)"/>
        <path id="Path_132" d="M833.147 714.33l12.655-9.89 19.92-19.623s-2.678-.132-6.593-.3a4.257 4.257 0 0 0-1.389 2.678c-.1 2.4-5.386.169-8.13 1.541s-16.186 18.572-18.543 18.461-4.216-1.2-5.2.474a1.01 1.01 0 0 1-.07.111 2.79 2.79 0 0 1-1.5.886z" class="cls-7" data-name="Path 132" transform="translate(-496.875 -425.672)"/>
        <path id="Path_133" d="M783.87 703.907l6.358 20.3 1 3.189 3.029-.824 6.676-1.834 29.735-8.167a25.907 25.907 0 0 0 10.714-2.856 32.412 32.412 0 0 1 18.477-4.03c3.931.367 8.3-1.327 11.95-8.027 0 0 8.241-24.312-12.56-31.318s-21.79 3.709-21.79 3.709-.107.058-.28.173c-.824.515-3.07 2.135-3.152 4.121-.1 2.4-5.386.165-8.13 1.537s-16.186 18.576-18.543 18.465-4.216-1.195-5.2.474c0 .037-.045.07-.07.107-.725 1-2.909 1.236-4.356 1.273-.787.025-1.36 0-1.36 0l-.185.058-1.541.428z" class="cls-12" data-name="Path 133" transform="translate(-473.105 -415.938)"/>
        <path id="Path_134" d="M787.86 641.274l3.066.486 1.278-12.642s-1.405-.21-3.161-.618c.465 1.751-.59 8.579-1.183 12.774z" class="cls-7" data-name="Path 134" transform="translate(-475.451 -392.736)"/>
        <path id="Path_135" d="M868.727 515.568s9.123-2.65 6.865 23.253-19.128 42.266-19.128 42.266-19.425 8.534-28.157 7.162A149.716 149.716 0 0 0 813.2 586.6a22.166 22.166 0 0 0-8.831-2.353c-4.908-.2-15.206-3.239-15.4-4.219s2.551-15.4 1.372-16.483c0 0 13.734.565 15.111 1.558s3.334.28 4.8 0 5.987-4.207 14.913-.771c0 0 3.041.293 4.219-.49a4.218 4.218 0 0 1 3.066-.2 8.039 8.039 0 0 0 2.135-1.1c.284-.412 2.646 0 2.646 0a1.046 1.046 0 0 0 1.475-.688 6.414 6.414 0 0 1 1.372-2.155s2.65-14.913 7.652-20.5a3.2 3.2 0 0 0 1.08-2.847c-.39-1.573 8.156-23.928 19.917-20.784z" class="cls-7" data-name="Path 135" transform="translate(-476.095 -326.163)"/>
        <path id="Path_136" d="M868.157 510.73s9.123-2.65 6.869 23.253-19.153 42.283-19.153 42.283-19.425 8.534-28.157 7.162-15.107-1.669-15.107-1.669a22.139 22.139 0 0 0-8.831-2.353c-4.9-.2-15.205-3.239-15.4-4.22s2.551-15.4 1.376-16.483c0 0 13.734.565 15.107 1.558s3.338.28 4.809 0 5.983-4.2 14.913-.771c0 0 3.041.292 4.216-.49a4.23 4.23 0 0 1 3.07-.2 8.639 8.639 0 0 0 2.13-1.08c.292-.391 2.65 0 2.65 0a1.042 1.042 0 0 0 1.471-.684 6.4 6.4 0 0 1 1.372-2.159s2.65-14.913 7.652-20.5a3.2 3.2 0 0 0 1.08-2.843c-.395-1.569 8.139-23.944 19.933-20.804z" class="cls-14" data-name="Path 136" transform="translate(-475.748 -323.319)"/>
        <path id="Path_137" d="M810 746.7l12.956 15.659c.049-.045.082-.078.082-.091.1-.3 1.372-3.63 1.08-3.828s-2.551-5.1-7.063-7.162a13.278 13.278 0 0 1-5.546-5.048z" class="cls-7" data-name="Path 137" transform="translate(-488.468 -461.953)"/>
        <path id="Path_138" d="M810.037 788.5l1.418.824s3.3-2.637 6.556-5.291 6.441-5.254 6.494-5.4c.095-.293 1.368-3.63 1.076-3.824-.153-.1-.824-1.463-2.06-3.037-8.785-2.472-3.194 3.639-2.448 3.919 0 0-10.714-2.472-11.283 9.193a13.752 13.752 0 0 0 .247 3.616z" class="cls-7" data-name="Path 138" transform="translate(-488.327 -476.624)"/>
        <path id="Path_139" d="M822.165 793.456l1.867 1.08 18.956.49a36.615 36.615 0 0 0 6.7 3.222 5.742 5.742 0 0 0 .952.21 42.549 42.549 0 0 0 5.275.1c1.45-.037 2.576-.1 2.576-.1s-.9-23.9-1.574-26.373c-.321-1.2-1.908-.94-3.474-.338a22.739 22.739 0 0 0-3.391 1.718s-8.044.779-9.321 1.471-4.9-.412-7.162 0-6.276-2.658-6.276-2.658c-10.99-3.626-4.809 3.14-4.026 3.437 0 0-10.689-2.472-11.278 9.193s10.176 8.548 10.176 8.548z" class="cls-14" data-name="Path 139" transform="translate(-489.622 -476.641)"/>
        <path id="Path_140" d="M903.137 784.271c.206 4.945 4.059 11.081 6.354 14.324 1.451-.037 2.576-.1 2.576-.1s-.9-23.9-1.574-26.373c-.321-1.2-1.908-.939-3.474-.338-1.883 3.545-4.046 8.502-3.882 12.487z" class="cls-14" data-name="Path 140" transform="translate(-543.22 -476.678)"/>
        <path id="Path_141" d="M903.137 784.271c.206 4.945 4.059 11.081 6.354 14.324 1.451-.037 2.576-.1 2.576-.1s-.9-23.9-1.574-26.373c-.321-1.2-1.908-.939-3.474-.338-1.883 3.545-4.046 8.502-3.882 12.487z" class="cls-7" data-name="Path 141" transform="translate(-543.22 -476.678)"/>
        <path id="Path_142" d="M894.835 784.926c1.3 4.772 1.29 10.125 3.367 13.359a5.736 5.736 0 0 0 .952.21 42.551 42.551 0 0 0 5.275.1c1.45-.037 2.575-.1 2.575-.1s-.9-23.9-1.574-26.373c-.321-1.2-1.908-.939-3.474-.338a22.757 22.757 0 0 0-3.391 1.718s-5.395 5.317-3.73 11.424z" class="cls-13" data-name="Path 142" transform="translate(-538.157 -476.678)"/>
        <path id="Path_143" d="M736.77 686.94s9.4 3.053 17.373 13.9z" class="cls-7" data-name="Path 143" transform="translate(-445.414 -427.095)"/>
        <g id="Group_1" data-name="Group 1" opacity="0.1" transform="translate(314.345 135.383)">
            <path id="Path_144" d="M921.683 401.26a1.915 1.915 0 0 1-.058.206 6.634 6.634 0 0 1-.325.824 6.158 6.158 0 0 1 .383-1.03z" data-name="Path 144" transform="translate(-868.249 -394.519)"/>
            <path id="Path_145" d="M792.786 386.882a8.844 8.844 0 0 1 .729-1.982c-.049.169-.1.338-.144.511a14.149 14.149 0 0 0 .437 6.507 4.532 4.532 0 0 0 1.582 2.905c1.463.935 3.709.12 4.912 1.38.758.8.8 2.229 1.789 2.724a2.022 2.022 0 0 0 1.17.136c2.6-.371 4.121-3.3 6.622-4.121a6.654 6.654 0 0 1 4.389.379 3.215 3.215 0 0 1 1.451.931c.824 1.084.251 2.683.639 3.993.54 1.821 2.716 2.547 4.6 2.781s4.005.371 5.262 1.8a4.771 4.771 0 0 1 .935 3.8 3.06 3.06 0 0 0 0 1.405c.519 1.471 3.066 1.236 3.709.091.486-.845.342-1.545 1.488-1.78a4.878 4.878 0 0 1 2.4.412 17.629 17.629 0 0 0 6.338.952 8.4 8.4 0 0 0 4.974-1.508 5.769 5.769 0 0 0 1.525-1.854 6.24 6.24 0 0 1-2.1 3.33 8.421 8.421 0 0 1-4.974 1.508 17.59 17.59 0 0 1-6.334-.952 4.933 4.933 0 0 0-2.4-.412c-1.146.235-1 .935-1.484 1.78-.667 1.162-3.21 1.38-3.733-.091a3.058 3.058 0 0 1 0-1.405 4.762 4.762 0 0 0-.931-3.8c-1.261-1.422-3.383-1.558-5.266-1.793s-4.059-.96-4.595-2.781c-.392-1.315.2-2.913-.639-4a3.247 3.247 0 0 0-1.455-.931 6.759 6.759 0 0 0-4.389-.379c-2.505.824-4.018 3.758-6.622 4.121a2.023 2.023 0 0 1-1.17-.136c-.989-.495-1.03-1.92-1.789-2.72-1.191-1.261-3.449-.449-4.908-1.385a4.519 4.519 0 0 1-1.586-2.905 14.222 14.222 0 0 1-.432-6.511z" data-name="Path 145" transform="translate(-792.558 -384.9)"/>
        </g>
        <path id="Path_146" d="M914.677 573.552c-1.8 2.427-3.849 4.673-5.439 7.24a13.736 13.736 0 0 0-2.382 8.563c1.648-1.69 2.4-4.022 3.437-6.14 1.755-3.585 4.384-6.626 6.593-9.923.412-.63 3.136-4.265 1.764-4.438-1.129-.144-3.359 3.87-3.973 4.698z" class="cls-7" data-name="Path 146" transform="translate(-545.377 -357.667)"/>
    </g>
</svg>
