<?xml version="1.0" encoding="utf-8"?>
<!-- Generator: Adobe Illustrator 24.2.1, SVG Export Plug-In . SVG Version: 6.00 Build 0)  -->
<svg version="1.1" xmlns="http://www.w3.org/2000/svg" xmlns:xlink="http://www.w3.org/1999/xlink" x="0px" y="0px"
	 viewBox="0 0 980 968" style="enable-background:new 0 0 980 968;" xml:space="preserve">
<style type="text/css">
	.st0{display:none;fill:#FFFFFF;}
	.st1{fill:#FFFFFF;}
</style>
<g id="Layer_1">
	<path class="st0" d="M945,968H0V766c0.4,0.9,0.7,1.9,0.9,2.8c7.1,49.8,47.5,85,98,85c112.2,0.1,224.3,0.1,336.5,0
		c1.4,0,2.8-0.2,5.4-0.4c-2-1.8-3.3-2.8-4.4-4c-12.2-13.4-24.5-26.7-36.4-40.5c-2.6-3-4.8-4.2-8.7-4.2c-97,0.1-194,0.1-291,0.1
		c-30.7,0-51.4-20.7-51.4-51.5c0-217.7,0-435.3,0-653c-0.1-3.5,0.1-7,0.6-10.4c4.5-25.3,24.1-41.1,51.2-41.1c135.3,0,270.7,0,406,0
		h5.5v6.8c0,62.2,0,124.3,0,186.5c0,18.9,4.3,36.8,14.5,52.7c19.9,31.1,48.6,46.5,85.4,46.7c45.8,0.2,91.7,0,137.5,0h6.5
		c0,8,0.2,15.1-0.1,22.3c-0.1,3.2,0.9,4.8,3.8,6.5c14,7.7,27.7,15.9,41.5,24c1,0.6,2.1,1.2,3.6,2c0-34.2,0-67.7-0.1-101.2
		c-0.2-1.9-1-3.8-2.3-5.2C750.7,227.8,698.9,165.5,647,103.4C618.3,68.9,589.7,34.5,561,0h419v933c-1-0.9-2-1.7-3-2.6
		c-37.8-37.8-75.6-75.6-113.3-113.4c-1.1-1.2-2-2.6-2.7-4l-35.5,35.4c0.9,0.8,2.4,1.9,3.7,3.2c37.5,37.4,74.9,74.9,112.3,112.3
		C942.8,965.2,943.8,966.6,945,968z M634.5,390.2c-134.6,0-244.1,109-244.4,243.4s109,244.3,242.8,244.4
		c135.6,0.1,244.9-108.6,245.1-243.6C878.1,500,768.8,390.3,634.5,390.2z M146.5,243.7h243.3v-48.3H146.5L146.5,243.7z M146.2,389.9
		h243.5v-48.3H152c-0.7,0-1.3,0-2,0c-2.8-0.3-3.9,0.8-3.8,3.7c0.2,4.8,0,9.7,0,14.5L146.2,389.9z M146.2,512.2H238
		c41.8,0,83.6,0,125.4,0.1c3.7,0,5.5-1.2,7.1-4.5c4.1-8.3,8.6-16.5,13.2-24.6c3.7-6.4,7.9-12.6,12.5-19.7H152.9c-0.8,0-1.7,0-2.5,0
		c-3.2-0.4-4.4,0.9-4.3,4.2c0.2,7.2,0.1,14.3,0.1,21.5L146.2,512.2z M146.5,658.2h195.4v-48H146.5L146.5,658.2z"/>
	<path class="st1" d="M561,0c28.7,34.5,57.3,68.9,86,103.4c51.8,62.2,103.7,124.4,155.5,186.6c1.3,1.4,2.1,3.3,2.3,5.2
		c0.1,33.5,0.1,67,0.1,101.2c-1.5-0.8-2.6-1.4-3.6-2c-13.8-8-27.5-16.2-41.5-24c-3-1.7-3.9-3.3-3.8-6.5c0.2-7.1,0.1-14.3,0.1-22.3
		h-6.5c-45.8,0-91.7,0.1-137.5,0c-36.8-0.1-65.5-15.6-85.4-46.7c-10.2-16-14.5-33.8-14.5-52.7c0-62.2,0-124.3,0-186.5v-6.8h-5.5
		c-135.3,0-270.7,0-406,0c-27.1,0-46.7,15.8-51.2,41.1c-0.5,3.5-0.7,7-0.6,10.4c0,217.7,0,435.3,0,653c0,30.8,20.7,51.5,51.4,51.5
		c97,0,194,0,291-0.1c3.8,0,6.1,1.2,8.7,4.2c11.9,13.7,24.2,27,36.3,40.5c1.1,1.2,2.4,2.2,4.4,4c-2.6,0.2-4,0.4-5.4,0.4
		c-112.2,0-224.3,0-336.5,0c-50.5,0-90.8-35.3-98-85c-0.2-1-0.5-1.9-0.8-2.8V88c0.3-1.3,0.7-2.5,1-3.8C6.6,49.4,25.2,24,57.1,9.2
		C67,4.6,78.3,3,89,0H561z M756,292.8L561.1,58.9c-0.1,2.3-0.2,3.3-0.2,4.2c0,60.2,0,120.3,0,180.5c0,2.5,0.1,5,0.5,7.5
		c4.3,25.1,23.8,41.6,49.7,41.7c46.5,0.1,93,0,139.5,0L756,292.8z"/>
	<path class="st1" d="M945,968c-1.2-1.4-2.2-2.8-3.5-4.1c-37.4-37.5-74.9-74.9-112.3-112.3c-1.3-1.3-2.8-2.4-3.7-3.2L861,813
		c0.7,1.4,1.6,2.8,2.7,4c37.7,37.8,75.5,75.6,113.3,113.4c0.9,0.9,2,1.7,3,2.6v1l-34,34H945z"/>
	<path class="st1" d="M89,0C78.3,3,67,4.6,57.1,9.2C25.2,24,6.6,49.4,1,84.2c-0.2,1.3-0.6,2.6-1,3.8V0H89z"/>
	<path class="st1" d="M946,968l34-34v34H946z"/>
	<path class="st1" d="M634.5,390.2c134.3,0,243.6,109.7,243.5,244.2c-0.2,135-109.5,243.7-245.1,243.6
		c-133.8-0.1-243-110.1-242.8-244.4S499.9,390.2,634.5,390.2z M634.2,829.2c107.6,0.1,194.8-87.1,194.9-194.6c0-0.2,0-0.4,0-0.6
		c-0.2-107.7-87.3-194.8-194.9-194.9S439,526.5,439,634.2S526.4,829.2,634.2,829.2z"/>
	<path class="st1" d="M146.5,243.7v-48.3h243.3v48.3H146.5z"/>
	<path class="st1" d="M146.2,389.9v-30.1c0-4.8,0.1-9.7,0-14.5c-0.1-2.9,1-4,3.8-3.7c0.7,0,1.3,0,2,0h237.8v48.3L146.2,389.9z"/>
	<path class="st1" d="M146.2,512.2v-23c0-7.2,0.2-14.3-0.1-21.5c-0.1-3.3,1.1-4.6,4.3-4.2c0.8,0,1.7,0,2.5,0h243.3
		c-4.5,7.1-8.8,13.2-12.5,19.7c-4.7,8-9.2,16.2-13.2,24.6c-1.6,3.3-3.4,4.5-7.1,4.5c-41.8-0.1-83.6-0.1-125.4-0.1L146.2,512.2
		L146.2,512.2z"/>
	<path class="st1" d="M146.5,658.2v-48h195.4v48H146.5z"/>
</g>
<g id="Layer_2">
</g>
</svg>
